<svg id="Calque_1" data-name="Calque 1" xmlns="http://www.w3.org/2000/svg" viewBox="0 0 1080 1080">
    <defs>
        <style>
            .cls-1{fill:#95e1f9;}.cls-2{fill:#ffd33f;}.cls-3{fill:#fe8b6e;}.cls-4{fill:#98e8e7;}.cls-5{fill:#5ab3b9;}.cls-6{fill:#ff563f;}.cls-7{fill:#2b6b75;}.cls-8{fill:#5fc5ee;}
        </style>
    </defs>
    <path class="cls-1"
          d="M539.68,11C245.68,11,7.35,249.36,7.35,543.35s238.33,532.32,532.33,532.32S1072,837.34,1072,543.35,833.67,11,539.68,11Zm0,1013.51c-266.32,0-482.21-215.9-482.21-482.21S273.36,60.12,539.68,60.12,1021.89,276,1021.89,542.33,806,1024.54,539.68,1024.54Z"/>
    <path class="cls-2"
          d="M626.81,305.38l-100,33.7a17,17,0,0,1-5.38.9V238.85a16.68,16.68,0,0,1,5.38.9l100,33.7C642.06,278.59,642.07,300.24,626.81,305.38Z"/>
    <path class="cls-3"
          d="M510.22,344.26V644.38H304.64A16.86,16.86,0,0,1,291.49,617C521.87,329.47,508.19,346.06,510.22,344.26Z"/>
    <path class="cls-4" d="M538.3,255.7v428H504.6v-428a16.85,16.85,0,1,1,33.7,0Z"/>
    <path class="cls-5" d="M538.3,255.7v428H521.45V238.85A16.86,16.86,0,0,1,538.3,255.7Z"/>
    <path class="cls-6"
          d="M760,683.7H513.64c85.52-100.13,88.74-239.39,24.81-342.16C709.22,351.56,819.76,525.89,760,683.7Z"/>
    <path class="cls-5"
          d="M789.53,702l-30.76,67.11c-25.93-18.14-51.45-14.92-75.36,5.23-18.79,15.84-34.4,15.86-53.19,0-27-22.73-54.89-23-82.18,0-18.79,15.85-34.39,15.88-53.19,0-26.58-22.4-54.51-23.32-82.16,0-18.81,15.85-34.38,15.88-53.2,0-23.91-20.15-49.4-23.37-75.35-5.25L253.37,702a16.87,16.87,0,0,1,15.33-23.87H774.21A16.87,16.87,0,0,1,789.53,702Z"/>
    <path class="cls-7"
          d="M789.53,702l-30.76,67.11c-25.92-18.13-51.45-14.92-75.36,5.23-18.79,15.84-34.4,15.86-53.19,0-27-22.72-54.88-23-82.18,0-9.4,7.93-18,11.9-26.59,11.9V678.09H774.21A16.86,16.86,0,0,1,789.53,702Z"/>
    <path class="cls-1"
          d="M809,798.28V814H233.87V798.28a16.86,16.86,0,0,1,16.85-16.85c10.76,0,15.36-3.87,23-10.3,29.24-24.65,60.22-24.62,89.4,0,16.7,14.08,29.29,14.07,46,0,29.24-24.65,60.21-24.62,89.41,0,16.69,14.08,29.27,14.07,45.95,0,29.25-24.65,60.22-24.62,89.41,0,16.7,14.08,29.28,14.07,46,0,29.24-24.65,60.21-24.62,89.41,0,7.61,6.43,12.22,10.3,23,10.3A16.86,16.86,0,0,1,809,798.28Z"/>
    <path class="cls-8"
          d="M809,798.28V814H521.45V781.68c7.33,0,14.63-3.51,23-10.55,29.25-24.65,60.22-24.62,89.41,0,16.7,14.08,29.28,14.07,46,0,29.24-24.65,60.21-24.62,89.41,0,7.61,6.43,12.22,10.3,23,10.3A16.86,16.86,0,0,1,809,798.28Z"/>
</svg>
