<svg id="Calque_1" data-name="Calque 1" xmlns="http://www.w3.org/2000/svg" viewBox="0 0 1080 1080"><defs><style>.cls-1{fill:#5eecb4;}.cls-2{fill:#98e8e7;}.cls-3{fill:#5ab3b9;}.cls-4{fill:#c8f3fc;}.cls-5{fill:#95e1f9;}.cls-6{fill:#db342e;}.cls-7{fill:#e5e5e5;}.cls-8{fill:#ff563f;}.cls-9{fill:#fff;}.cls-10{fill:#2b6b75;}</style></defs><path class="cls-1" d="M539.5,9C246,9,8,247,8,540.5S246,1072,539.5,1072,1071,834,1071,540.5,833,9,539.5,9Zm0,1011.94C273.59,1020.94,58,805.38,58,539.48S273.59,58,539.5,58,1021,273.57,1021,539.48,805.41,1020.94,539.5,1020.94Z"/><path class="cls-2" d="M812.25,806.37H251.87V292.7a5.19,5.19,0,0,1,5.19-5.19h550a5.19,5.19,0,0,1,5.19,5.19Z"/><rect class="cls-3" x="251.87" y="712.98" width="560.38" height="83.02"/><path class="cls-3" d="M812.25,473.41a27.73,27.73,0,0,1-6.61.89,27.36,27.36,0,0,1-27.36-27.36,27.36,27.36,0,1,1-54.71,0,27.36,27.36,0,0,1-54.72,0,27.36,27.36,0,0,1-54.72,0,27.36,27.36,0,0,1-54.72,0,27.36,27.36,0,1,1-54.71,0,27.36,27.36,0,0,1-54.72,0,27.36,27.36,0,0,1-54.72,0,27.36,27.36,0,0,1-54.72,0,27.36,27.36,0,1,1-54.71,0,27.36,27.36,0,0,1-27.36,27.36,27.73,27.73,0,0,1-6.61-.89v21a44.52,44.52,0,0,0,34-7.89,48.05,48.05,0,0,0,54.72,0,48,48,0,0,0,54.71,0,48.05,48.05,0,0,0,54.72,0,48.05,48.05,0,0,0,54.72,0,48,48,0,0,0,54.71,0,48.05,48.05,0,0,0,54.72,0,48.05,48.05,0,0,0,54.72,0,48.05,48.05,0,0,0,54.72,0,48,48,0,0,0,54.71,0,44.52,44.52,0,0,0,34,7.89v-21Z"/><rect class="cls-4" x="303.76" y="536.57" width="290.56" height="207.54"/><rect class="cls-4" x="635.84" y="536.57" width="124.53" height="207.54"/><rect class="cls-5" x="635.84" y="536.57" width="124.53" height="31.13"/><rect class="cls-5" x="303.76" y="536.57" width="290.56" height="31.13"/><path class="cls-6" d="M477.34,474.3h0A27.36,27.36,0,0,1,450,446.94V422.41H504.7v24.53A27.36,27.36,0,0,1,477.34,474.3Z"/><path class="cls-6" d="M586.78,474.3h0a27.36,27.36,0,0,1-27.36-27.36V422.41h54.71v24.53A27.36,27.36,0,0,1,586.78,474.3Z"/><path class="cls-6" d="M367.91,474.3h0a27.36,27.36,0,0,1-27.36-27.36V422.41h54.72v24.53A27.36,27.36,0,0,1,367.91,474.3Z"/><path class="cls-6" d="M258.47,474.3h0a27.36,27.36,0,0,1-27.35-27.36V422.41h54.71v24.53A27.36,27.36,0,0,1,258.47,474.3Z"/><path class="cls-6" d="M696.21,474.3h0a27.36,27.36,0,0,1-27.36-27.36V422.41h54.72v24.53A27.36,27.36,0,0,1,696.21,474.3Z"/><path class="cls-7" d="M422.62,474.3h0a27.35,27.35,0,0,1-27.35-27.36V422.41H450v24.53A27.36,27.36,0,0,1,422.62,474.3Z"/><path class="cls-7" d="M641.49,474.3h0a27.36,27.36,0,0,1-27.36-27.36V422.41h54.72v24.53A27.36,27.36,0,0,1,641.49,474.3Z"/><path class="cls-6" d="M805.64,474.3h0a27.36,27.36,0,0,1-27.36-27.36V422.41H833v24.53A27.36,27.36,0,0,1,805.64,474.3Z"/><path class="cls-7" d="M750.93,474.3h0a27.36,27.36,0,0,1-27.36-27.36V422.41h54.71v24.53A27.36,27.36,0,0,1,750.93,474.3Z"/><path class="cls-7" d="M313.19,474.3h0a27.36,27.36,0,0,1-27.36-27.36V422.41h54.72v24.53A27.36,27.36,0,0,1,313.19,474.3Z"/><path class="cls-7" d="M532.06,474.3h0a27.36,27.36,0,0,1-27.36-27.36V422.41h54.72v24.53A27.36,27.36,0,0,1,532.06,474.3Z"/><polygon class="cls-8" points="504.7 422.41 449.98 422.41 455.64 339.39 506.59 339.39 504.7 422.41"/><polygon class="cls-8" points="614.13 422.41 559.42 422.41 557.53 339.39 608.47 339.39 614.13 422.41"/><polygon class="cls-8" points="395.27 422.41 340.55 422.41 353.76 339.39 404.7 339.39 395.27 422.41"/><polygon class="cls-8" points="285.83 422.41 231.12 422.41 251.87 339.39 302.81 339.39 285.83 422.41"/><polygon class="cls-8" points="723.57 422.41 668.85 422.41 659.42 339.39 710.36 339.39 723.57 422.41"/><polygon class="cls-9" points="449.98 422.41 395.27 422.41 404.7 339.39 455.64 339.39 449.98 422.41"/><polygon class="cls-9" points="668.85 422.41 614.13 422.41 608.47 339.39 659.42 339.39 668.85 422.41"/><polygon class="cls-8" points="833 422.41 778.28 422.41 761.3 339.39 812.25 339.39 833 422.41"/><polygon class="cls-9" points="778.28 422.41 723.57 422.41 710.36 339.39 761.3 339.39 778.28 422.41"/><polygon class="cls-9" points="340.55 422.41 285.83 422.41 302.81 339.39 353.76 339.39 340.55 422.41"/><polygon class="cls-9" points="559.42 422.41 504.7 422.41 506.59 339.39 557.53 339.39 559.42 422.41"/><path class="cls-10" d="M583.94,546.94V733.73H314.13V546.94H583.94m10.38-20.75H303.76a10.37,10.37,0,0,0-10.38,10.37V744.11a10.38,10.38,0,0,0,10.38,10.38H594.32a10.38,10.38,0,0,0,10.38-10.38V536.56a10.37,10.37,0,0,0-10.38-10.37Z"/><path class="cls-10" d="M760.36,526.19H635.83a10.37,10.37,0,0,0-10.38,10.37V796H770.74V536.56A10.37,10.37,0,0,0,760.36,526.19ZM750,733.73H646.21V546.94H750Z"/><path class="cls-10" d="M698.09,339.39H366a20.75,20.75,0,0,1-20.75-20.75V256.38A20.75,20.75,0,0,1,366,235.62H698.1a20.75,20.75,0,0,1,20.75,20.76v62.26A20.75,20.75,0,0,1,698.09,339.39Z"/><path class="cls-2" d="M692.91,318.64H371.21a5.19,5.19,0,0,1-5.19-5.19V261.56a5.18,5.18,0,0,1,5.19-5.18h321.7a5.18,5.18,0,0,1,5.18,5.18v51.89A5.18,5.18,0,0,1,692.91,318.64Z"/><path class="cls-3" d="M371.21,318.64h321.7a5.18,5.18,0,0,0,5.18-5.19V292.7a5.18,5.18,0,0,1-5.18,5.18H371.21A5.18,5.18,0,0,1,366,292.7v20.75A5.19,5.19,0,0,0,371.21,318.64Z"/><path class="cls-10" d="M827.81,816.75H236.3a5.18,5.18,0,0,1-5.18-5.19V801.18A5.19,5.19,0,0,1,236.3,796H827.81a5.19,5.19,0,0,1,5.19,5.19v10.38A5.19,5.19,0,0,1,827.81,816.75Z"/></svg>