<svg id="Calque_1" data-name="Calque 1" xmlns="http://www.w3.org/2000/svg" viewBox="0 0 1080 1085"><defs><style>.cls-1{fill:#ffbe00;}.cls-2{fill:#dc9d00;}.cls-3{fill:#98e8e7;}.cls-4{fill:#5ab3b9;}</style></defs><path class="cls-1" d="M544.07,265.41l-8.48-5.36-8.48,5.36-309,195.22L234.11,486l.91,1.42,40.42-25.53c-2.78,7.5-4.41,15.2-4.41,20.47a25.11,25.11,0,0,0,25.1,25.1,25.1,25.1,0,0,0,0,50.2,25.1,25.1,0,0,0,0,50.2,25.1,25.1,0,1,0,0,50.2,25.1,25.1,0,1,0,0,50.19,25.1,25.1,0,0,0,0,50.2,25.1,25.1,0,0,0,0,50.2,25.6,25.6,0,0,0,3.42-.26H771.61a26,26,0,0,0,3.44.26,25.1,25.1,0,0,0,0-50.2c-.23,0-.45,0-.68,0v-.07c.23,0,.45,0,.68,0a25.1,25.1,0,0,0,0-50.2c-.23,0-.45,0-.68,0v-.06l.68,0a25.1,25.1,0,0,0,0-50.19c-.23,0-.45,0-.68,0v-.07c.23,0,.45,0,.68,0a25.1,25.1,0,0,0,0-50.2c-.23,0-.45,0-.68,0v-.07c.23,0,.45,0,.68,0a25.1,25.1,0,0,0,0-50.2c-.23,0-.45,0-.68,0v-.07c.23,0,.45,0,.68,0a25.1,25.1,0,0,0,0-50.2c-.23,0-.45,0-.68,0v-.06l.68,0a25.1,25.1,0,0,0,25.09-25.1c0-4.27-1.07-11.53-2.95-19.55l38.95,24.62.91-1.44,16.05-25.4Z"/><path class="cls-2" d="M836.14,487.46l-38.95-24.61c1.88,8,3,15.28,3,19.55a24.86,24.86,0,0,1-4.85,14.82L535.59,333.15,275.87,497.2A24.88,24.88,0,0,1,271,482.4c0-5.27,1.63-13,4.41-20.47L235,487.46l-.91-1.42L527.11,301l8.48-5.36,8.48,5.36L837.05,486Z"/><polyline class="cls-2" points="566.11 808.69 566.11 758.49 566.11 708.29 566.11 658.1 566.11 607.9 566.11 584.1 697.71 584.1 697.71 607.9 697.71 658.1 697.71 708.29 697.71 758.49 697.71 808.69"/><polyline class="cls-3" points="593.4 808.69 593.4 758.49 593.4 708.29 593.4 658.1 593.4 611.4 670.41 611.4 670.41 658.1 670.41 708.29 670.41 758.49 670.41 808.69"/><rect class="cls-2" x="373.46" y="584.1" width="131.6" height="131.6"/><rect class="cls-3" x="391.57" y="602.21" width="95.38" height="95.38"/><rect class="cls-2" x="431.12" y="601.94" width="16.28" height="95.92"/><rect class="cls-2" x="389.05" y="641.76" width="100.41" height="16.28"/><path class="cls-2" d="M808.28,524.46a33.16,33.16,0,0,0-11.48-25.1A33.21,33.21,0,0,0,783.18,442v-1H288v1a33.21,33.21,0,0,0-13.61,57.32,33.18,33.18,0,0,0,0,50.2,33.18,33.18,0,0,0,0,50.2,33.17,33.17,0,0,0,0,50.19,33.18,33.18,0,0,0,0,50.2,33.18,33.18,0,0,0,0,50.2,33.24,33.24,0,1,0,50.32,8.14H574.25V742.21H324.7a33.19,33.19,0,0,0,0-33.92h56.9V692H324.7a33.19,33.19,0,0,0,0-33.92h56.9V641.81H324.7a33.19,33.19,0,0,0,0-33.92h56.9V591.61H324.7a33.17,33.17,0,0,0,0-33.91H746.47a33.11,33.11,0,0,0,0,33.91h-56.9v16.28h56.9a33.13,33.13,0,0,0,0,33.92h-56.9v16.28h56.9a33.19,33.19,0,0,0,0,33.92h-56.9v16.28h56.91a33.16,33.16,0,0,0,0,33.92h-56.9v16.28h56.91a33.24,33.24,0,1,0,50.32-8.14,33.16,33.16,0,0,0,0-50.2,33.16,33.16,0,0,0,0-50.2,33.15,33.15,0,0,0,0-50.19,33.16,33.16,0,0,0,0-50.2A33.19,33.19,0,0,0,808.28,524.46ZM792,474.26a17,17,0,1,1-17-17A17,17,0,0,1,792,474.26ZM746.47,507.5a33.13,33.13,0,0,0,0,33.92H324.7a33.19,33.19,0,0,0,0-33.92ZM324.7,491.22a33.19,33.19,0,0,0,0-33.92H746.47a33.13,33.13,0,0,0,0,33.92Zm-45.53-17a17,17,0,1,1,16.95,17A17,17,0,0,1,279.17,474.26Zm0,50.2a17,17,0,1,1,16.95,17A17,17,0,0,1,279.17,524.46Zm0,50.2a17,17,0,1,1,16.95,17A17,17,0,0,1,279.17,574.66Zm0,50.2a17,17,0,1,1,16.95,17A17,17,0,0,1,279.17,624.86Zm0,50.2a17,17,0,1,1,16.95,17A17,17,0,0,1,279.17,675.06Zm0,50.19a17,17,0,1,1,16.95,17A17,17,0,0,1,279.17,725.25Zm16.95,67.16a17,17,0,1,1,17-17A17,17,0,0,1,296.12,792.41Zm495.88-17a17,17,0,1,1-17-17A17,17,0,0,1,792,775.45Zm0-50.2a17,17,0,1,1-17-17A17,17,0,0,1,792,725.25Zm0-50.19a17,17,0,1,1-17-17A17,17,0,0,1,792,675.06Zm0-50.2a17,17,0,1,1-17-17A17,17,0,0,1,792,624.86Zm0-50.2a17,17,0,1,1-17-17A17,17,0,0,1,792,574.66Zm-33.92-50.2a17,17,0,1,1,17,17A17,17,0,0,1,758.08,524.46Z"/><rect class="cls-2" x="353.61" y="391.14" width="363.96" height="16.28"/><path class="cls-2" d="M640.24,342.29h-81.1a33.24,33.24,0,1,0-47.11,0h-81.1v16.28H640.24V342.29ZM535.58,301.91a17,17,0,1,1-17,17A17,17,0,0,1,535.58,301.91Z"/><rect class="cls-2" x="496.91" y="591.62" width="77.33" height="16.28"/><rect class="cls-2" x="496.91" y="641.82" width="77.33" height="16.28"/><rect class="cls-2" x="496.91" y="692.01" width="77.33" height="16.28"/><polygon class="cls-4" points="836.14 487.46 535.58 297.6 235.02 487.46 218.07 460.62 527.11 265.41 535.58 260.05 544.06 265.41 853.1 460.62 836.14 487.46"/><path class="cls-1" d="M540.39,12.3C247.2,12.3,9.53,250,9.53,543.15S247.2,1074,540.39,1074s530.85-237.67,530.85-530.85S833.57,12.3,540.39,12.3Zm0,1010.71C274.8,1023,59.51,807.71,59.51,542.13S274.8,61.25,540.39,61.25s480.87,215.3,480.87,480.88S806,1023,540.39,1023Z"/></svg>