<svg id="Calque_1" data-name="Calque 1" xmlns="http://www.w3.org/2000/svg" viewBox="0 0 1080 1080"><defs><style>.cls-1{fill:#2b6b75;}.cls-2{fill:#5ab3b9;}.cls-3{fill:#98e8e7;}.cls-4{fill:#ffd33f;}.cls-5{fill:#ffbe00;}.cls-6{fill:#b67f00;}.cls-7{fill:#36daa8;}.cls-8{fill:#caf3ef;}</style></defs><path class="cls-1" d="M726.43,824.34H549V363h194V748.51l-16.63,25.34Z"/><path class="cls-2" d="M579.7,292.34H549L523.67,495,549,818.35,579.7,814Z"/><path class="cls-3" d="M306.68,241.61v50.73H277.75V814L441.3,833.46,549,818.35V241.61Z"/><path class="cls-4" d="M366.46,363.39h35.63v50.69H366.46Z"/><path class="cls-4" d="M455.16,363.39H490.8v50.69H455.16Z"/><path class="cls-4" d="M366.46,464.76h35.63v50.69H366.46Z"/><path class="cls-4" d="M455.16,464.76H490.8v50.69H455.16Z"/><path class="cls-4" d="M366.46,566.15h35.63v50.68H366.46Z"/><path class="cls-4" d="M455.16,566.15H490.8v50.68H455.16Z"/><path class="cls-4" d="M366.46,667.52h35.63v50.69H366.46Z"/><path class="cls-4" d="M455.16,667.52H490.8v50.69H455.16Z"/><path class="cls-5" d="M625.45,464.76h35.64v50.69H625.45Z"/><path class="cls-5" d="M625.45,566.15h35.64v50.68H625.45Z"/><path class="cls-6" d="M707.53,742.37h35.64v88.71H707.53Z"/><path class="cls-7" d="M725.35,784.74a77.82,77.82,0,1,1,77.81-77.82A77.91,77.91,0,0,1,725.35,784.74Z"/><path class="cls-3" d="M802.47,814H549l-12.67,23.17L549,849.69H802.47Z"/><path class="cls-8" d="M277.75,814H549v35.65H277.75Z"/><path class="cls-7" d="M538.39,9.3C245.2,9.3,7.53,247,7.53,540.15S245.2,1071,538.39,1071s530.85-237.67,530.85-530.85S831.57,9.3,538.39,9.3Zm0,1010.71C272.8,1020,57.51,804.71,57.51,539.13S272.8,58.25,538.39,58.25s480.87,215.3,480.87,480.88S804,1020,538.39,1020Z"/></svg>