<svg id="Calque_1" data-name="Calque 1" xmlns="http://www.w3.org/2000/svg" viewBox="0 0 1080 1080"><defs><style>.cls-1{fill:#b72027;}.cls-2{fill:#fee066;}.cls-3{fill:#cecece;}.cls-4{fill:#9c9c9c;}.cls-5{fill:#838383;}.cls-6{fill:#db342e;}.cls-7{fill:#fe8b6e;}.cls-8{fill:#ff563f;}.cls-9{fill:#e7e7e7;}.cls-10{fill:#5a5a5a;}</style></defs><path class="cls-1" d="M535,6.08C240.9,6.08,2.51,244.47,2.51,538.54S240.9,1071,535,1071s532.46-238.39,532.46-532.46S829,6.08,535,6.08Zm0,1013.77c-266.39,0-482.34-216-482.34-482.33S268.58,55.18,535,55.18s482.33,216,482.33,482.34S801.35,1019.85,535,1019.85Z"/><path class="cls-2" d="M265,521.39H238.05a13.86,13.86,0,0,1-13.85-13.86v-13a13.86,13.86,0,0,1,13.85-13.86H265Z"/><path class="cls-3" d="M440.87,479.27a10.23,10.23,0,0,1-8.69-15.6l43.62-70.62a10.23,10.23,0,1,1,17.4,10.76l-43.62,70.6A10.2,10.2,0,0,1,440.87,479.27Z"/><path class="cls-4" d="M551.43,458.24l121.85-41.65a25.09,25.09,0,0,1,25.09,25.09v37.58H551.43Z"/><path class="cls-5" d="M673.28,416.59l-14.83,5.07a25,25,0,0,1,10,20v37.58h29.9V441.68A25.09,25.09,0,0,0,673.28,416.59Z"/><path class="cls-6" d="M858.37,651.19h-603V482.49a24.26,24.26,0,0,1,24.26-24.25h412.6A172.72,172.72,0,0,1,865,631v13.59A6.63,6.63,0,0,1,858.37,651.19Z"/><path class="cls-1" d="M692.27,458.24h-8.94A172.49,172.49,0,0,1,755.88,599v13.59a6.63,6.63,0,0,1-6.63,6.64H255.41v32h603a6.63,6.63,0,0,0,6.63-6.64V631A172.72,172.72,0,0,0,692.27,458.24Z"/><path class="cls-7" d="M753.14,548.24H724.42a87.59,87.59,0,0,0-87.6,87.6v15.35H840.74V635.84A87.59,87.59,0,0,0,753.14,548.24Z"/><path class="cls-8" d="M750.68,548.24h-23.8a89.91,89.91,0,0,0-23,3,90.08,90.08,0,0,1,67,87.07v12.89h69.9V638.3A90.06,90.06,0,0,0,750.68,548.24Z"/><path class="cls-8" d="M462.79,549a62.07,62.07,0,1,1-62.07-62.08A62.07,62.07,0,0,1,462.79,549Z"/><path class="cls-7" d="M400.72,486.87a62.1,62.1,0,0,0-13.52,1.5,62.07,62.07,0,0,1,0,121.16A62.72,62.72,0,0,0,400.72,611a62.08,62.08,0,0,0,0-124.15Z"/><path class="cls-8" d="M305.35,548.24H250.69a64.83,64.83,0,0,0-64.83,64.83v31.3a6.83,6.83,0,0,0,6.82,6.82H491.43s-60.54-41.4-100.72-69.91S336.92,548.24,305.35,548.24Z"/><path class="cls-6" d="M390.71,581.28c-40.18-28.5-53.79-33-85.36-33H250.69c-.84,0-1.68,0-2.5.06,27.53.63,41.87,6.32,79.45,33,40.17,28.5,100.71,69.9,100.71,69.9h63.08S430.89,609.79,390.71,581.28Z"/><path class="cls-9" d="M343.5,652.44a63.76,63.76,0,1,1-63.76-63.75A63.76,63.76,0,0,1,343.5,652.44Z"/><path class="cls-3" d="M301.32,592.44a63.77,63.77,0,0,1-73.68,96.73,63.75,63.75,0,1,0,73.68-96.73Z"/><path class="cls-4" d="M295.52,652.44a15.78,15.78,0,1,1-15.78-15.78A15.77,15.77,0,0,1,295.52,652.44Z"/><path class="cls-10" d="M279.74,726.42a74,74,0,1,1,74-74A74.06,74.06,0,0,1,279.74,726.42Zm0-127.5a53.53,53.53,0,1,0,53.53,53.52A53.58,53.58,0,0,0,279.74,598.92Z"/><path class="cls-9" d="M802.53,652.44a63.75,63.75,0,1,1-63.75-63.75A63.76,63.76,0,0,1,802.53,652.44Z"/><path class="cls-3" d="M760.36,592.44a63.77,63.77,0,0,1-73.68,96.73,63.75,63.75,0,1,0,73.68-96.73Z"/><path class="cls-10" d="M738.78,726.42a74,74,0,1,1,74-74A74.06,74.06,0,0,1,738.78,726.42Zm0-127.5a53.53,53.53,0,1,0,53.53,53.52A53.59,53.59,0,0,0,738.78,598.92Z"/><path class="cls-4" d="M754.56,652.44a15.78,15.78,0,1,1-15.78-15.78A15.77,15.77,0,0,1,754.56,652.44Z"/><path class="cls-1" d="M591.73,595H529.42a36.53,36.53,0,0,1-36.49-36.48V458.24h19.9V558.56a16.6,16.6,0,0,0,16.59,16.58h62.31a16.6,16.6,0,0,0,16.59-16.58V458.24h19.9V558.56A36.53,36.53,0,0,1,591.73,595Z"/><path class="cls-4" d="M550.11,511H536a10,10,0,0,1,0-19.9h14.07a10,10,0,0,1,0,19.9Z"/></svg>