<svg id="Calque_1" data-name="Calque 1" xmlns="http://www.w3.org/2000/svg" viewBox="0 0 1080 1080"><defs><style>.cls-1{fill:#c8f3fc;}.cls-2{fill:#5fc5ee;}.cls-3{fill:#0076c8;}.cls-4{fill:#ffbe00;}</style></defs><polyline class="cls-1" points="338.33 397.49 338.33 350.98 275.72 350.98 275.72 445.99"/><polygon class="cls-1" points="831.39 540.94 831.39 497.89 866.28 497.89 536.12 242.12 205.97 497.89 240.86 497.89 240.86 540.94 240.86 595.01 240.86 805.61 831.39 805.61 831.39 595.01 831.39 540.94"/><polygon class="cls-2" points="240.86 540.94 240.86 554.11 536.12 325.36 831.39 554.11 831.39 540.94 831.39 497.89 866.28 497.89 536.12 242.12 205.97 497.89 240.86 497.89 240.86 540.94"/><rect class="cls-2" x="240.15" y="594.3" width="591.95" height="35.57"/><polyline class="cls-2" points="573.12 592.88 573.12 429.95 499.13 429.95 499.13 592.88"/><polyline class="cls-2" points="395.61 807.03 395.61 649.08 321.61 649.08 321.61 807.03"/><polygon class="cls-3" points="866.28 497.89 831.39 497.89 831.39 503.94 536.13 275.2 240.86 503.94 240.86 497.89 205.97 497.89 536.13 242.12 866.28 497.89"/><polygon class="cls-3" points="579.52 592.88 566.72 592.88 566.72 436.35 505.53 436.35 505.53 592.88 492.72 592.88 492.72 423.54 579.52 423.54 579.52 592.88"/><polygon class="cls-3" points="402.01 807.03 389.2 807.03 389.2 655.49 328.02 655.49 328.02 807.03 315.21 807.03 315.21 642.68 402.01 642.68 402.01 807.03"/><rect class="cls-4" x="499.13" y="365.91" width="73.99" height="32.73"/><rect class="cls-4" x="371.94" y="429.94" width="83.03" height="82.53"/><rect class="cls-4" x="617.27" y="429.94" width="83.03" height="82.53"/><rect class="cls-4" x="446.83" y="649.08" width="83.03" height="82.53"/><rect class="cls-4" x="577.74" y="649.08" width="83.03" height="82.53"/><rect class="cls-4" x="708.66" y="649.08" width="83.03" height="82.53"/><path class="cls-3" d="M579.52,405h-86.8V359.51h86.8Zm-74-12.8h61.19V372.32H505.53Z"/><path class="cls-3" d="M461.38,518.88H365.55V423.54h95.83Zm-83-12.81h70.22V436.35H378.35Z"/><path class="cls-3" d="M706.7,518.88H610.87V423.54H706.7v95.34Zm-83-12.81h70.21V436.35H623.68v69.72Z"/><rect class="cls-3" x="407.06" y="429.94" width="12.81" height="79.69"/><path class="cls-3" d="M536.26,738H440.43V642.68h95.83V738Zm-83-12.81h70.22V655.48H453.24Z"/><rect class="cls-3" x="481.94" y="649.08" width="12.81" height="79.69"/><path class="cls-3" d="M667.17,738H571.34V642.68h95.83V738Zm-83-12.81h70.22V655.48H584.15Z"/><rect class="cls-3" x="612.85" y="649.08" width="12.81" height="79.69"/><path class="cls-3" d="M798.09,738H702.25V642.68h95.84V738Zm-83-12.81h70.22V655.48H715.06Z"/><rect class="cls-3" x="743.76" y="649.08" width="12.81" height="79.69"/><rect class="cls-3" x="652.38" y="429.94" width="12.81" height="79.69"/><path class="cls-3" d="M746,537.77V524.58H731.78v13.19H610.83V524.58H596.6v13.19h-121V524.58H461.42v13.19H340.47V524.58H326.24v13.19H214.54v64.35H857.71V537.77ZM843.48,552v10.83H746V552Zm-111.7,0v10.83H610.83V552ZM475.65,577.06h121v10.83h-121V577.06Zm-14.23,10.83H340.47V577.06h121Zm149.41-10.83H731.78v10.83H610.83ZM596.6,552v10.83h-121V552Zm-135.18,0v10.83H340.47V552Zm-135.18,0v10.83H228.77V552Zm-97.47,25.06h97.47v10.83H228.77ZM746,587.89V577.06h97.47v10.83Z"/><rect class="cls-3" x="266.47" y="319.68" width="81.11" height="34.15"/><path class="cls-3" d="M535,6.08C240.9,6.08,2.51,244.47,2.51,538.54S240.9,1071,535,1071s532.46-238.39,532.46-532.46S829,6.08,535,6.08Zm0,1013.77c-266.39,0-482.34-216-482.34-482.33S268.58,55.18,535,55.18s482.33,216,482.33,482.34S801.35,1019.85,535,1019.85Z"/></svg>