<svg id="Calque_1" data-name="Calque 1" xmlns="http://www.w3.org/2000/svg" viewBox="0 0 1080 1080"><defs><style>.cls-1{fill:#5ab3b9;}.cls-2{fill:#2b6b75;}.cls-3{fill:#98e8e7;}.cls-4{fill:#ffd33f;}</style></defs><rect class="cls-1" x="676.7" y="346.11" width="63.01" height="109.99"/><rect class="cls-2" x="652.64" y="289.97" width="111.13" height="59.58"/><path class="cls-3" d="M313.51,563.8V817H762.62V563.8L538.07,339.24h0C451,427.46,401.73,476.72,313.51,563.8Z"/><path class="cls-1" d="M763.77,563.8,539.21,339.24c-44.68,43.54-79.05,77.91-113.42,112.28L313.51,563.8v51.55L538.07,390.79,762.63,615.35v6.88h0V563.8Z"/><path class="cls-1" d="M498,817H362.77V684.1a67.73,67.73,0,0,1,67.6-67.6h0A67.72,67.72,0,0,1,498,684.1Z"/><rect class="cls-2" x="538.07" y="616.5" width="176.44" height="154.67"/><rect class="cls-4" x="556.4" y="634.83" width="60.72" height="118.01"/><rect class="cls-4" x="635.45" y="634.83" width="60.72" height="118.01"/><path class="cls-2" d="M805,516.82,565.56,277.37c-13.74-13.75-37.8-13.75-51.55,0L275.7,516.82c-13.75,13.75-13.75,37.81,0,51.56s37.81,13.75,51.56,0l213.1-213.1,213.1,213.1c13.75,13.75,37.81,13.75,51.56,0C818.76,553.49,818.76,530.57,805,516.82Z"/><path class="cls-4" d="M540.74,7c-293.81,0-532,238.18-532,532s238.17,532,532,532,532-238.18,532-532S834.54,7,540.74,7Zm0,1012.86c-266.15,0-481.9-215.76-481.9-481.9S274.59,56.1,540.74,56.1,1022.63,271.85,1022.63,538,806.88,1019.9,540.74,1019.9Z"/></svg>
