<svg id="Calque_1" data-name="Calque 1" xmlns="http://www.w3.org/2000/svg" viewBox="0 0 1080 1080"><defs><style>.cls-1{fill:#5ab3b9;}.cls-2{fill:#ffbe00;}.cls-3{fill:#ffd33f;}.cls-4{fill:#98e8e7;}.cls-5{fill:#2b6b75;}.cls-6{fill:#dc9d00;}</style></defs><path class="cls-1" d="M500.36,328h81.3v61h-81.3Z"/><path class="cls-2" d="M327.59,399.15h20.32V450H327.59Z"/><path class="cls-2" d="M378.4,399.15h20.33V450H378.4Z"/><path class="cls-2" d="M429.22,399.15h20.32V450H429.22Z"/><path class="cls-2" d="M632.48,399.15h20.33V450H632.48Z"/><path class="cls-2" d="M683.29,399.15h20.33V450H683.29Z"/><path class="cls-2" d="M734.11,399.15h20.33V450H734.11Z"/><path class="cls-2" d="M530.85,226.38h20.32v50.81H530.85Z"/><path class="cls-2" d="M490.2,399.15H591.83v61H490.2Z"/><path class="cls-1" d="M490.2,317.85a50.82,50.82,0,1,1,101.63,0Z"/><path class="cls-3" d="M480,317.85v20.32H490.2v61H591.83v-61H602V317.85Zm30.49,61V348.33a10.17,10.17,0,0,1,20.33,0v30.49Zm40.65,0V348.33a10.17,10.17,0,0,1,20.33,0v30.49Z"/><path class="cls-1" d="M337.75,429.64H744.27v71.14H337.75Z"/><path class="cls-4" d="M276.77,500.78h122l-61-71.14Z"/><path class="cls-4" d="M805.25,500.78h-122l61-71.14Z"/><path class="cls-5" d="M652.81,460.13h20.32v30.49H652.81Z"/><path class="cls-5" d="M408.89,460.13h20.33v30.49H408.89Z"/><path class="cls-4" d="M541,419.48l-142.28,81.3H683.29Z"/><path class="cls-2" d="M276.77,500.78V826H805.25V500.78Z"/><path class="cls-5" d="M530.85,450h20.32v20.32H530.85Z"/><path class="cls-3" d="M398.73,490.62H683.29V836.16H398.73Z"/><path class="cls-2" d="M246.28,815.84H398.73v20.32H246.28Z"/><path class="cls-2" d="M256.44,714.21H398.73v20.32H256.44Z"/><path class="cls-2" d="M256.44,490.62H398.73v20.32H256.44Z"/><path class="cls-2" d="M256.44,602.41H398.73v20.33H256.44Z"/><path class="cls-2" d="M683.29,815.84H835.74v20.32H683.29Z"/><path class="cls-2" d="M683.29,714.21H825.58v20.32H683.29Z"/><path class="cls-2" d="M683.29,490.62H825.58v20.32H683.29Z"/><path class="cls-2" d="M683.29,602.41H825.58v20.33H683.29Z"/><path class="cls-1" d="M347.91,754.86h20.33v30.49H347.91Z"/><path class="cls-1" d="M307.26,754.86h20.33v30.49H307.26Z"/><path class="cls-1" d="M347.91,531.27h20.33V551.6H347.91Z"/><path class="cls-1" d="M307.26,531.27h20.33V551.6H307.26Z"/><path class="cls-1" d="M307.26,571.92h20.33v40.66H307.26Z"/><path class="cls-1" d="M347.91,571.92h20.33v40.66H347.91Z"/><path class="cls-1" d="M347.91,643.07h20.33v20.32H347.91Z"/><path class="cls-1" d="M307.26,643.07h20.33v20.32H307.26Z"/><path class="cls-1" d="M307.26,683.72h20.33v40.65H307.26Z"/><path class="cls-1" d="M347.91,683.72h20.33v40.65H347.91Z"/><path class="cls-1" d="M713.78,754.86h20.33v30.49H713.78Z"/><path class="cls-1" d="M754.44,754.86h20.32v30.49H754.44Z"/><path class="cls-1" d="M713.78,531.27h20.33V551.6H713.78Z"/><path class="cls-1" d="M754.44,531.27h20.32V551.6H754.44Z"/><path class="cls-1" d="M754.44,571.92h20.32v40.66H754.44Z"/><path class="cls-1" d="M713.78,571.92h20.33v40.66H713.78Z"/><path class="cls-1" d="M713.78,643.07h20.33v20.32H713.78Z"/><path class="cls-1" d="M754.44,643.07h20.32v20.32H754.44Z"/><path class="cls-1" d="M754.44,683.72h20.32v40.65H754.44Z"/><path class="cls-1" d="M713.78,683.72h20.33v40.65H713.78Z"/><path class="cls-1" d="M469.87,531.27H490.2V551.6H469.87Z"/><path class="cls-1" d="M429.22,531.27h20.32V551.6H429.22Z"/><path class="cls-1" d="M429.22,571.92h20.32v40.66H429.22Z"/><path class="cls-1" d="M469.87,571.92H490.2v40.66H469.87Z"/><path class="cls-1" d="M551.17,531.27H571.5V551.6H551.17Z"/><path class="cls-1" d="M510.52,531.27h20.33V551.6H510.52Z"/><path class="cls-1" d="M510.52,571.92h20.33v40.66H510.52Z"/><path class="cls-1" d="M551.17,571.92H571.5v40.66H551.17Z"/><path class="cls-1" d="M632.48,531.27h20.33V551.6H632.48Z"/><path class="cls-1" d="M591.83,531.27h20.32V551.6H591.83Z"/><path class="cls-1" d="M591.83,571.92h20.32v40.66H591.83Z"/><path class="cls-1" d="M632.48,571.92h20.33v40.66H632.48Z"/><path class="cls-1" d="M469.87,643.07H490.2v20.32H469.87Z"/><path class="cls-1" d="M429.22,643.07h20.32v20.32H429.22Z"/><path class="cls-1" d="M429.22,683.72h20.32v40.65H429.22Z"/><path class="cls-1" d="M469.87,683.72H490.2v40.65H469.87Z"/><path class="cls-1" d="M551.17,643.07H571.5v20.32H551.17Z"/><path class="cls-1" d="M510.52,643.07h20.33v20.32H510.52Z"/><path class="cls-1" d="M510.52,683.72h20.33v40.65H510.52Z"/><path class="cls-1" d="M551.17,683.72H571.5v40.65H551.17Z"/><path class="cls-1" d="M632.48,643.07h20.33v20.32H632.48Z"/><path class="cls-1" d="M591.83,643.07h20.32v20.32H591.83Z"/><path class="cls-1" d="M591.83,683.72h20.32v40.65H591.83Z"/><path class="cls-1" d="M632.48,683.72h20.33v40.65H632.48Z"/><path class="cls-1" d="M561.34,836.16H520.68V785.35a20.33,20.33,0,1,1,40.66,0Z"/><path class="cls-1" d="M642.64,836.16H602V785.35a20.33,20.33,0,1,1,40.65,0Z"/><path class="cls-1" d="M480,836.16H439.38V785.35a20.33,20.33,0,1,1,40.65,0Z"/><path class="cls-2" d="M398.73,734.53H683.29v20.33H398.73Z"/><path class="cls-2" d="M398.73,510.94H683.29v20.33H398.73Z"/><path class="cls-2" d="M398.73,622.74H683.29v20.33H398.73Z"/><path class="cls-6" d="M276.77,734.53h122v20.33h-122Z"/><path class="cls-6" d="M276.77,510.94h122v20.33h-122Z"/><path class="cls-6" d="M276.77,622.74h122v20.33h-122Z"/><path class="cls-6" d="M683.29,734.53h122v20.33h-122Z"/><path class="cls-6" d="M683.29,510.94h122v20.33h-122Z"/><path class="cls-6" d="M683.29,622.74h122v20.33h-122Z"/><path class="cls-1" d="M540.25,10.53C247.68,10.53,10.51,247.7,10.51,540.27S247.68,1070,540.25,1070,1070,832.84,1070,540.27,832.82,10.53,540.25,10.53Zm0,1008.6c-265,0-479.87-214.85-479.87-479.87S275.23,59.38,540.25,59.38s479.88,214.85,479.88,479.88S805.28,1019.13,540.25,1019.13Z"/></svg>