<svg id="Calque_1" data-name="Calque 1" xmlns="http://www.w3.org/2000/svg" viewBox="0 0 1080 1080"><defs><style>.cls-1{fill:#5ab3b9;}.cls-2{fill:#98e8e7;}.cls-3{fill:#dc9d00;}.cls-4{fill:#caf3ef;}.cls-5{fill:#2b6b75;}</style></defs><path class="cls-1" d="M691.11,822.79H510.43l.15-547.87H691.11Z"/><path class="cls-2" d="M226.52,443H510.43V822.79H226.52Z"/><path class="cls-2" d="M691.11,513.4H809.59V822.79H691.11Z"/><path class="cls-2" d="M632.47,561.51H569.08V527.44a31.7,31.7,0,0,1,63.39,0Z"/><path class="cls-2" d="M632.47,412.79H569.08V378.73a31.68,31.68,0,0,1,31.68-31.68h0a31.68,31.68,0,0,1,31.69,31.68Z"/><path class="cls-3" d="M510.43,602.39H691.11v35.2H510.43Z"/><path class="cls-3" d="M510.58,239.72H691.11v35.2H510.58Z"/><path class="cls-3" d="M510.43,443H226.52V407.81H509.77Z"/><path class="cls-3" d="M691.11,478.2H809.59v35.19H691.11Z"/><path class="cls-2" d="M600.77,709.54a43.27,43.27,0,0,0-43.28,43.26v70h43.28Z"/><path class="cls-4" d="M644.06,752.8a43.28,43.28,0,0,0-43.29-43.26V822.79h43.29Z"/><path class="cls-3" d="M452.1,672.84H284.85l13.77-35.2H438.34Z"/><path class="cls-1" d="M298.62,673.05H438.34V822.79H298.62Z"/><path class="cls-2" d="M335.86,714.27h65.23V822.79H335.86Z"/><path class="cls-5" d="M549.71,473.18H651.84a8.8,8.8,0,0,0,0-17.59H549.71a8.8,8.8,0,1,0,0,17.59Z"/><path class="cls-5" d="M549.71,323.48H651.84a8.8,8.8,0,0,0,0-17.59H549.71a8.8,8.8,0,1,0,0,17.59Z"/><path class="cls-5" d="M541.85,687.71a8.8,8.8,0,1,0,12.44,12.44,65.85,65.85,0,0,1,93,0,8.8,8.8,0,1,0,12.44-12.44,83.46,83.46,0,0,0-117.85,0Z"/><path class="cls-5" d="M772.07,547.92H728.63a8.8,8.8,0,0,0,0,17.6h43.44a8.8,8.8,0,0,0,0-17.6Z"/><path class="cls-4" d="M728.63,591.12h43.44v57.75H728.63Z"/><path class="cls-4" d="M728.63,708.41h43.44V822.79H728.63Z"/><path class="cls-1" d="M347.44,584.37V535.73A19.73,19.73,0,0,0,327.7,516h-.24A19.74,19.74,0,0,0,288,516h-.24A19.74,19.74,0,0,0,268,535.73v48.64Z"/><path class="cls-1" d="M469,584.37V535.73A19.73,19.73,0,0,0,449.21,516H449a19.74,19.74,0,0,0-39.47,0h-.24a19.74,19.74,0,0,0-19.75,19.73v48.64Z"/><path class="cls-3" d="M539.5,9C246,9,8,247,8,540.5S246,1072,539.5,1072,1071,834,1071,540.5,833,9,539.5,9Zm0,1011.94C273.59,1020.94,58,805.38,58,539.48S273.59,58,539.5,58,1021,273.57,1021,539.48,805.41,1020.94,539.5,1020.94Z"/></svg>