<svg id="Calque_1" data-name="Calque 1" xmlns="http://www.w3.org/2000/svg" xmlns:xlink="http://www.w3.org/1999/xlink" viewBox="0 0 1080 1080"><defs><style>.cls-1{stroke-miterlimit:10;stroke-width:8px;fill:url(#Dégradé_sans_nom_9);stroke:url(#Dégradé_sans_nom_9-2);}.cls-2{fill:url(#Dégradé_sans_nom_9-3);}</style><linearGradient id="Dégradé_sans_nom_9" x1="295.28" y1="372.47" x2="683.33" y2="760.53" gradientUnits="userSpaceOnUse"><stop offset="0" stop-color="#5fc5ee"/><stop offset="1" stop-color="#94f9c7"/></linearGradient><linearGradient id="Dégradé_sans_nom_9-2" x1="292.45" y1="369.64" x2="686.16" y2="763.36" xlink:href="#Dégradé_sans_nom_9"/><linearGradient id="Dégradé_sans_nom_9-3" x1="368.16" y1="438.28" x2="458.41" y2="528.53" xlink:href="#Dégradé_sans_nom_9"/></defs><path class="cls-1" d="M708.81,654.63a169.48,169.48,0,0,0,20.66-81.14c0-91.62-73.06-166.48-164-169.41a169.62,169.62,0,0,0-146.83-84.89c-93.47,0-169.51,76.05-169.51,169.51a169.48,169.48,0,0,0,20.66,81.14l-10.29,61.81a14.07,14.07,0,0,0,16.19,16.19l61.81-10.29a169.4,169.4,0,0,0,75.61,20.57,169.51,169.51,0,0,0,228,64.22l61.8,10.29a14.07,14.07,0,0,0,16.19-16.19Zm-368.7-45.85a15,15,0,0,0-2.31.19l-47.29,7.88,7.88-47.29a14.06,14.06,0,0,0-1.75-9.43,141.26,141.26,0,0,1-19.35-71.43c0-77.95,63.42-141.36,141.37-141.36S560,410.75,560,488.7,496.6,630.07,418.66,630.07a141.26,141.26,0,0,1-71.43-19.35,14,14,0,0,0-7.12-1.94Zm340.12,45.56,7.87,47.29-47.29-7.87a14.12,14.12,0,0,0-9.43,1.74,141.29,141.29,0,0,1-186.06-39.39,168,168,0,0,0,33.62-9,14,14,0,0,0,7.61,2.24H633.44a14.07,14.07,0,1,0,0-28.14H524.23a171,171,0,0,0,32-33.66h77.17a14.07,14.07,0,1,0,0-28.14H572.69a168.44,168.44,0,0,0,11.39-33.66h49.37a14.07,14.07,0,0,0,0-28.14H587.93c.16-3,.23-5.93.23-8.92a168.83,168.83,0,0,0-9.27-55.3c69,9.28,122.43,68.56,122.43,140.09A141.22,141.22,0,0,1,682,644.91a14.06,14.06,0,0,0-1.74,9.43Z"/><path class="cls-2" d="M366.78,445.34q0-8.73,12.79-16.83,16.4-10.87,37.28-10.87,20,0,33,11.72A37.61,37.61,0,0,1,463.3,459q0,11.07-5,19t-16.73,15.77q-11.94,8.73-14.92,17.47-3.4,11.3-14.06,11.29a12.1,12.1,0,0,1-9.27-4.05,14.23,14.23,0,0,1-3.72-10q0-7.46,7.45-17.9a44.63,44.63,0,0,1,8.95-8.95q1.28-1.28,11.29-9.37,7.24-6.18,7.35-13.11a13.81,13.81,0,0,0-5.64-11.5Q423.24,443,414.72,443a37.08,37.08,0,0,0-19.81,6,50.33,50.33,0,0,0-4.9,3.73,47,47,0,0,1-5.86,4.26,7.51,7.51,0,0,1-5.22,1.17,11.38,11.38,0,0,1-8.63-3.73A12.72,12.72,0,0,1,366.78,445.34ZM401.09,562a16.57,16.57,0,0,1-4.9-12A16.95,16.95,0,0,1,425.06,538a17.25,17.25,0,0,1-.11,24,16.71,16.71,0,0,1-23.86,0Z"/></svg>