<svg id="Calque_1" data-name="Calque 1" xmlns="http://www.w3.org/2000/svg" xmlns:xlink="http://www.w3.org/1999/xlink" viewBox="0 0 1080 1080"><defs><style>.cls-1,.cls-11,.cls-12,.cls-13,.cls-14,.cls-2,.cls-3{stroke-miterlimit:10;}.cls-1,.cls-4{fill:url(#Dégradé_sans_nom_9);}.cls-1,.cls-14{stroke:url(#Dégradé_sans_nom_9-2);}.cls-1{clip-rule:evenodd;}.cls-2,.cls-7{fill:url(#Dégradé_sans_nom_9-3);}.cls-13,.cls-2{stroke:url(#Dégradé_sans_nom_9-4);}.cls-3,.cls-9{fill:url(#Dégradé_sans_nom_9-5);}.cls-12,.cls-3{stroke:url(#Dégradé_sans_nom_9-6);}.cls-14,.cls-4{fill-rule:evenodd;}.cls-5{clip-path:url(#clip-path);}.cls-6{isolation:isolate;}.cls-8{clip-path:url(#clip-path-2);}.cls-10{clip-path:url(#clip-path-3);}.cls-11{fill:url(#Dégradé_sans_nom_9-10);stroke:url(#Dégradé_sans_nom_9-11);}.cls-12,.cls-13,.cls-14{fill:none;}</style><linearGradient id="Dégradé_sans_nom_9" x1="293.55" y1="554.67" x2="786.2" y2="554.67" gradientUnits="userSpaceOnUse"><stop offset="0" stop-color="#5fc5ee"/><stop offset="1" stop-color="#94f9c7"/></linearGradient><linearGradient id="Dégradé_sans_nom_9-2" x1="365.3" y1="380.09" x2="714.48" y2="729.26" xlink:href="#Dégradé_sans_nom_9"/><linearGradient id="Dégradé_sans_nom_9-3" x1="145.77" y1="554.67" x2="909.38" y2="554.67" xlink:href="#Dégradé_sans_nom_9"/><linearGradient id="Dégradé_sans_nom_9-4" x1="151.42" y1="178.52" x2="903.72" y2="930.82" xlink:href="#Dégradé_sans_nom_9"/><linearGradient id="Dégradé_sans_nom_9-5" x1="268.93" y1="554.67" x2="786.22" y2="554.67" xlink:href="#Dégradé_sans_nom_9"/><linearGradient id="Dégradé_sans_nom_9-6" x1="274.59" y1="301.69" x2="780.56" y2="807.66" xlink:href="#Dégradé_sans_nom_9"/><clipPath id="clip-path"><path class="cls-1" d="M539.89,640.89a86.22,86.22,0,1,1,86.21-86.22,86.31,86.31,0,0,1-86.21,86.22m0-123.17a37,37,0,1,0,37,36.95,37,37,0,0,0-37-36.95M563.11,801H516.5a41.33,41.33,0,0,1-41.28-41.28V732.84c0-3.62-2.89-6.11-5.6-7.22-3.54-1.45-7.34-1.75-9.95.79l-19,19a41.47,41.47,0,0,1-58.56,0l-33-33a41.4,41.4,0,0,1,.07-58.61L368.14,635c2.58-2.59,2.31-6.38,1.16-9.11-1.48-3.62-3.95-6.51-7.59-6.51H335a41.48,41.48,0,0,1-41.46-41.43V531.3A41.32,41.32,0,0,1,334.86,490h26.85c3.62,0,6.11-2.9,7.22-5.61,1.47-3.55,1.77-7.37-.79-9.93l-19-19a41.51,41.51,0,0,1,0-58.55l33-33a41.1,41.1,0,0,1,29.27-12.12h.05A41,41,0,0,1,440.76,364l18.84,18.94c2.59,2.61,6.4,2.32,9.14,1.16,3.59-1.5,6.48-4,6.48-7.59V349.8a41.49,41.49,0,0,1,41.45-41.45h46.61a41.33,41.33,0,0,1,41.28,41.28V376.5c0,3.63,2.89,6.11,5.59,7.22,3.58,1.48,7.37,1.8,10-.79l19-19a41.47,41.47,0,0,1,58.56,0l33,33a41.4,41.4,0,0,1-.08,58.56l-18.94,18.86c-2.59,2.59-2.31,6.38-1.16,9.12,1.48,3.62,3.94,6.5,7.59,6.5h26.7a41.46,41.46,0,0,1,41.43,41.43v46.61a41.3,41.3,0,0,1-41.28,41.28H718.07c-3.62,0-6.11,2.91-7.22,5.62,0,0-.32.76-.34.81-1.13,2.74-1.43,6.56,1.13,9.12l19,19a41.52,41.52,0,0,1,0,58.56l-33,33a41.06,41.06,0,0,1-29.27,12.12h-.05A41,41,0,0,1,639,745.35l-18.84-18.94c-2.59-2.58-6.43-2.29-9.14-1.16-3.59,1.51-6.48,4-6.48,7.59v26.7A41.5,41.5,0,0,1,563.11,801Zm-38.63-49.27H555.3V732.84c0-23,14.16-43.72,36.06-52.76,22.66-9.44,47.42-4.81,63.72,11.6L668.36,705l21.88-21.88-13.43-13.4c-16.33-16.3-20.94-41-11.75-63,0,0,0,0,0,0l.27-.69c9-21.75,29.68-35.94,52.71-35.94h18.87V539.28H718.07c-23,0-43.75-14.17-52.76-36.06-9.49-22.67-4.83-47.42,11.57-63.75l13.33-13.28-21.85-21.85-13.42,13.42c-16.31,16.31-41,20.92-63,11.75-22.49-9.28-36.68-30-36.68-53V357.61H524.48V376.5c0,23-14.16,43.73-36.06,52.77-22.64,9.48-47.39,4.83-63.73-11.6l-13.27-13.33-21.88,21.87L403,439.61c16.31,16.31,20.94,41,11.75,63-9.26,22.49-30,36.68-53,36.68H342.82v30.79h18.89c23,0,43.75,14.16,52.76,36.06,9.49,22.66,4.83,47.42-11.58,63.75l-13.32,13.28L411.42,705l13.42-13.43c16.31-16.31,41-20.91,63-11.75,22.49,9.29,36.68,30,36.68,53Z"/></clipPath><clipPath id="clip-path-2"><rect class="cls-2" x="145.77" y="185.18" width="763.61" height="738.98"/></clipPath><clipPath id="clip-path-3"><rect class="cls-3" x="268.93" y="308.35" width="517.29" height="492.65"/></clipPath><linearGradient id="Dégradé_sans_nom_9-10" x1="170.39" y1="554.67" x2="909.37" y2="554.67" xlink:href="#Dégradé_sans_nom_9"/><linearGradient id="Dégradé_sans_nom_9-11" x1="169.89" y1="184.68" x2="909.87" y2="924.66" xlink:href="#Dégradé_sans_nom_9"/></defs><path class="cls-4" d="M539.89,640.89a86.22,86.22,0,1,1,86.21-86.22,86.31,86.31,0,0,1-86.21,86.22m0-123.17a37,37,0,1,0,37,36.95,37,37,0,0,0-37-36.95M563.11,801H516.5a41.33,41.33,0,0,1-41.28-41.28V732.84c0-3.62-2.89-6.11-5.6-7.22-3.54-1.45-7.34-1.75-9.95.79l-19,19a41.47,41.47,0,0,1-58.56,0l-33-33a41.4,41.4,0,0,1,.07-58.61L368.14,635c2.58-2.59,2.31-6.38,1.16-9.11-1.48-3.62-3.95-6.51-7.59-6.51H335a41.48,41.48,0,0,1-41.46-41.43V531.3A41.32,41.32,0,0,1,334.86,490h26.85c3.62,0,6.11-2.9,7.22-5.61,1.47-3.55,1.77-7.37-.79-9.93l-19-19a41.51,41.51,0,0,1,0-58.55l33-33a41.1,41.1,0,0,1,29.27-12.12h.05A41,41,0,0,1,440.76,364l18.84,18.94c2.59,2.61,6.4,2.32,9.14,1.16,3.59-1.5,6.48-4,6.48-7.59V349.8a41.49,41.49,0,0,1,41.45-41.45h46.61a41.33,41.33,0,0,1,41.28,41.28V376.5c0,3.63,2.89,6.11,5.59,7.22,3.58,1.48,7.37,1.8,10-.79l19-19a41.47,41.47,0,0,1,58.56,0l33,33a41.4,41.4,0,0,1-.08,58.56l-18.94,18.86c-2.59,2.59-2.31,6.38-1.16,9.12,1.48,3.62,3.94,6.5,7.59,6.5h26.7a41.46,41.46,0,0,1,41.43,41.43v46.61a41.3,41.3,0,0,1-41.28,41.28H718.07c-3.62,0-6.11,2.91-7.22,5.62,0,0-.32.76-.34.81-1.13,2.74-1.43,6.56,1.13,9.12l19,19a41.52,41.52,0,0,1,0,58.56l-33,33a41.06,41.06,0,0,1-29.27,12.12h-.05A41,41,0,0,1,639,745.35l-18.84-18.94c-2.59-2.58-6.43-2.29-9.14-1.16-3.59,1.51-6.48,4-6.48,7.59v26.7A41.5,41.5,0,0,1,563.11,801Zm-38.63-49.27H555.3V732.84c0-23,14.16-43.72,36.06-52.76,22.66-9.44,47.42-4.81,63.72,11.6L668.36,705l21.88-21.88-13.43-13.4c-16.33-16.3-20.94-41-11.75-63,0,0,0,0,0,0l.27-.69c9-21.75,29.68-35.94,52.71-35.94h18.87V539.28H718.07c-23,0-43.75-14.17-52.76-36.06-9.49-22.67-4.83-47.42,11.57-63.75l13.33-13.28-21.85-21.85-13.42,13.42c-16.31,16.31-41,20.92-63,11.75-22.49-9.28-36.68-30-36.68-53V357.61H524.48V376.5c0,23-14.16,43.73-36.06,52.77-22.64,9.48-47.39,4.83-63.73-11.6l-13.27-13.33-21.88,21.87L403,439.61c16.31,16.31,20.94,41,11.75,63-9.26,22.49-30,36.68-53,36.68H342.82v30.79h18.89c23,0,43.75,14.16,52.76,36.06,9.49,22.66,4.83,47.42-11.58,63.75l-13.32,13.28L411.42,705l13.42-13.43c16.31-16.31,41-20.91,63-11.75,22.49,9.29,36.68,30,36.68,53Z"/><g class="cls-5"><g class="cls-6"><rect class="cls-7" x="145.77" y="185.18" width="763.61" height="738.98"/><g class="cls-8"><rect class="cls-9" x="268.93" y="308.35" width="517.29" height="492.65"/><g class="cls-10"><rect class="cls-11" x="170.39" y="185.18" width="738.98" height="738.98"/></g><rect class="cls-12" x="268.93" y="308.35" width="517.29" height="492.65"/></g><rect class="cls-13" x="145.77" y="185.18" width="763.61" height="738.98"/></g></g><path class="cls-14" d="M539.89,640.89a86.22,86.22,0,1,1,86.21-86.22,86.31,86.31,0,0,1-86.21,86.22m0-123.17a37,37,0,1,0,37,36.95,37,37,0,0,0-37-36.95M563.11,801H516.5a41.33,41.33,0,0,1-41.28-41.28V732.84c0-3.62-2.89-6.11-5.6-7.22-3.54-1.45-7.34-1.75-9.95.79l-19,19a41.47,41.47,0,0,1-58.56,0l-33-33a41.4,41.4,0,0,1,.07-58.61L368.14,635c2.58-2.59,2.31-6.38,1.16-9.11-1.48-3.62-3.95-6.51-7.59-6.51H335a41.48,41.48,0,0,1-41.46-41.43V531.3A41.32,41.32,0,0,1,334.86,490h26.85c3.62,0,6.11-2.9,7.22-5.61,1.47-3.55,1.77-7.37-.79-9.93l-19-19a41.51,41.51,0,0,1,0-58.55l33-33a41.1,41.1,0,0,1,29.27-12.12h.05A41,41,0,0,1,440.76,364l18.84,18.94c2.59,2.61,6.4,2.32,9.14,1.16,3.59-1.5,6.48-4,6.48-7.59V349.8a41.49,41.49,0,0,1,41.45-41.45h46.61a41.33,41.33,0,0,1,41.28,41.28V376.5c0,3.63,2.89,6.11,5.59,7.22,3.58,1.48,7.37,1.8,10-.79l19-19a41.47,41.47,0,0,1,58.56,0l33,33a41.4,41.4,0,0,1-.08,58.56l-18.94,18.86c-2.59,2.59-2.31,6.38-1.16,9.12,1.48,3.62,3.94,6.5,7.59,6.5h26.7a41.46,41.46,0,0,1,41.43,41.43v46.61a41.3,41.3,0,0,1-41.28,41.28H718.07c-3.62,0-6.11,2.91-7.22,5.62,0,0-.32.76-.34.81-1.13,2.74-1.43,6.56,1.13,9.12l19,19a41.52,41.52,0,0,1,0,58.56l-33,33a41.06,41.06,0,0,1-29.27,12.12h-.05A41,41,0,0,1,639,745.35l-18.84-18.94c-2.59-2.58-6.43-2.29-9.14-1.16-3.59,1.51-6.48,4-6.48,7.59v26.7A41.5,41.5,0,0,1,563.11,801Zm-38.63-49.27H555.3V732.84c0-23,14.16-43.72,36.06-52.76,22.66-9.44,47.42-4.81,63.72,11.6L668.36,705l21.88-21.88-13.43-13.4c-16.33-16.3-20.94-41-11.75-63,0,0,0,0,0,0l.27-.69c9-21.75,29.68-35.94,52.71-35.94h18.87V539.28H718.07c-23,0-43.75-14.17-52.76-36.06-9.49-22.67-4.83-47.42,11.57-63.75l13.33-13.28-21.85-21.85-13.42,13.42c-16.31,16.31-41,20.92-63,11.75-22.49-9.28-36.68-30-36.68-53V357.61H524.48V376.5c0,23-14.16,43.73-36.06,52.77-22.64,9.48-47.39,4.83-63.73-11.6l-13.27-13.33-21.88,21.87L403,439.61c16.31,16.31,20.94,41,11.75,63-9.26,22.49-30,36.68-53,36.68H342.82v30.79h18.89c23,0,43.75,14.16,52.76,36.06,9.49,22.66,4.83,47.42-11.58,63.75l-13.32,13.28L411.42,705l13.42-13.43c16.31-16.31,41-20.91,63-11.75,22.49,9.29,36.68,30,36.68,53Z"/></svg>