<svg id="Calque_1" data-name="Calque 1" xmlns="http://www.w3.org/2000/svg" xmlns:xlink="http://www.w3.org/1999/xlink" viewBox="0 0 1080 1080"><defs><style>.cls-1,.cls-4{fill:url(#Dégradé_sans_nom_11);}.cls-1{clip-rule:evenodd;}.cls-2{fill:url(#Dégradé_sans_nom_11-2);}.cls-3{fill:url(#Dégradé_sans_nom_11-3);}.cls-4{fill-rule:evenodd;}.cls-5{clip-path:url(#clip-path);}.cls-6{isolation:isolate;}.cls-7{clip-path:url(#clip-path-2);}.cls-8{clip-path:url(#clip-path-3);}.cls-9{fill:url(#Dégradé_sans_nom_11-7);}</style><linearGradient id="Dégradé_sans_nom_11" x1="461.41" y1="474.07" x2="692.15" y2="704.81" gradientUnits="userSpaceOnUse"><stop offset="0" stop-color="#5fc5ee"/><stop offset="1" stop-color="#94f9c7"/></linearGradient><linearGradient id="Dégradé_sans_nom_11-2" x1="133.37" y1="130.39" x2="958.04" y2="955.06" xlink:href="#Dégradé_sans_nom_11"/><linearGradient id="Dégradé_sans_nom_11-3" x1="312.31" y1="324.89" x2="779.1" y2="791.68" xlink:href="#Dégradé_sans_nom_11"/><clipPath id="clip-path"><path class="cls-1" d="M825.54,401.53a26.79,26.79,0,0,0-1.31-6.5,28.66,28.66,0,0,0-1.46-5.29,26.23,26.23,0,0,0-3-4.42,30.31,30.31,0,0,0-4.17-5.36c-.28-.28-.4-.65-.71-.9-1.12-1-2.49-1.3-3.71-2.08a31,31,0,0,0-5.81-3.27,31.71,31.71,0,0,0-6.29-1.25c-1.49-.21-2.83-.9-4.42-.9H639.07a31.12,31.12,0,1,0,0,62.24H727L601.42,580.31,468.35,500.49a31,31,0,0,0-39.93,6.75L272.82,694a31.12,31.12,0,0,0,47.83,39.84L459.2,567.55l132.72,79.67a31.14,31.14,0,0,0,39.65-6.44l132-154v71.48a31.12,31.12,0,0,0,62.24,0V402.68c0-.4-.22-.74-.25-1.15"/></clipPath><clipPath id="clip-path-2"><rect class="cls-2" x="78.91" y="184.85" width="933.59" height="715.76"/></clipPath><clipPath id="clip-path-3"><rect class="cls-3" x="265.63" y="371.57" width="560.16" height="373.44"/></clipPath><linearGradient id="Dégradé_sans_nom_11-7" x1="156.7" y1="169.28" x2="934.71" y2="947.28" xlink:href="#Dégradé_sans_nom_11"/></defs><path class="cls-4" d="M825.54,401.53a26.79,26.79,0,0,0-1.31-6.5,28.66,28.66,0,0,0-1.46-5.29,26.23,26.23,0,0,0-3-4.42,30.31,30.31,0,0,0-4.17-5.36c-.28-.28-.4-.65-.71-.9-1.12-1-2.49-1.3-3.71-2.08a31,31,0,0,0-5.81-3.27,31.71,31.71,0,0,0-6.29-1.25c-1.49-.21-2.83-.9-4.42-.9H639.07a31.12,31.12,0,1,0,0,62.24H727L601.42,580.31,468.35,500.49a31,31,0,0,0-39.93,6.75L272.82,694a31.12,31.12,0,0,0,47.83,39.84L459.2,567.55l132.72,79.67a31.14,31.14,0,0,0,39.65-6.44l132-154v71.48a31.12,31.12,0,0,0,62.24,0V402.68c0-.4-.22-.74-.25-1.15"/><g class="cls-5"><g class="cls-6"><rect class="cls-2" x="78.91" y="184.85" width="933.59" height="715.76"/><g class="cls-7"><rect class="cls-3" x="265.63" y="371.57" width="560.16" height="373.44"/><g class="cls-8"><rect class="cls-9" x="110.02" y="215.96" width="871.37" height="684.64"/></g></g></g></g></svg>