<?xml version="1.0" encoding="utf-8"?>
<svg version="1.1" id="Calque_1" xmlns="http://www.w3.org/2000/svg" xmlns:xlink="http://www.w3.org/1999/xlink" x="0px" y="0px"
	 viewBox="0 0 409.9 455.6" style="enable-background:new 0 0 409.9 455.6;" xml:space="preserve">
<style type="text/css">
	.st0{fill-rule:evenodd;clip-rule:evenodd;fill:url(#SVGID_1_);}
</style>
<linearGradient id="SVGID_1_" gradientUnits="userSpaceOnUse" x1="52.0452" y1="367.3954" x2="357.4442" y2="61.9964" gradientTransform="matrix(1 0 0 -1 0 457.1594)">
	<stop  offset="0" style="stop-color:#36A3DE"/>
	<stop  offset="1" style="stop-color:#5EECB4"/>
</linearGradient>
<path class="st0" d="M399.1,300.9l-41-41.1V158c0-79.3-57-146.7-132.6-156.7c-84-11.1-161.2,48-172.3,132
	c-0.9,6.6-1.3,13.2-1.3,19.9v106.6l-41,41.1c-14.5,14.6-14.5,38.2,0,52.7c7,7,16.5,10.9,26.4,10.9h76.6v7.8
	c0,46,40.9,83.4,91.1,83.4s91.1-37.4,91.1-83.4v-7.8h76.5c20.6,0,37.3-16.7,37.3-37.3C409.9,317.3,406,307.9,399.1,300.9
	L399.1,300.9z M250.6,372.3c0,20.5-20.9,37.8-45.6,37.8s-45.6-17.3-45.6-37.8v-7.8h91.1V372.3z M57.2,318.9L84.1,292
	c8.6-8.5,13.4-20.1,13.4-32.2V153.2c0.1-31.1,13.5-60.6,36.9-81c23.2-20.6,54.4-30,85.1-25.7c53,7,93,55,93,111.5v101.8
	c0,12.1,4.8,23.7,13.3,32.2l26.9,27H57.2z"/>
</svg>
