<svg id="Calque_1" data-name="Calque 1" xmlns="http://www.w3.org/2000/svg" xmlns:xlink="http://www.w3.org/1999/xlink" viewBox="0 0 1080 1080"><defs><style>.cls-1,.cls-4{fill:url(#Dégradé_sans_nom_95);}.cls-1{clip-rule:evenodd;}.cls-2{fill:url(#Dégradé_sans_nom_95-2);}.cls-3{fill:url(#Dégradé_sans_nom_95-3);}.cls-4{fill-rule:evenodd;}.cls-5{clip-path:url(#clip-path);}.cls-6{isolation:isolate;}.cls-7{clip-path:url(#clip-path-2);}.cls-8{clip-path:url(#clip-path-3);}.cls-9{fill:url(#Dégradé_sans_nom_95-7);}</style><linearGradient id="Dégradé_sans_nom_95" x1="328.54" y1="408.82" x2="700.13" y2="780.41" gradientUnits="userSpaceOnUse"><stop offset="0" stop-color="#36a3de"/><stop offset="1" stop-color="#5eecb4"/></linearGradient><linearGradient id="Dégradé_sans_nom_95-2" x1="230.58" y1="248.46" x2="871.73" y2="889.61" xlink:href="#Dégradé_sans_nom_95"/><linearGradient id="Dégradé_sans_nom_95-3" x1="343.06" y1="360.94" x2="759.25" y2="777.13" xlink:href="#Dégradé_sans_nom_95"/><clipPath id="clip-path"><path class="cls-1" d="M714,486.43l-122.47-135a22.52,22.52,0,0,0-16.67-7.38H417.42c-31.7,0-57.48,25.24-57.48,56.24V737.76c0,31,25.78,56.24,57.48,56.24h245c31.7,0,57.51-25.24,57.51-56.24V501.54A22.5,22.5,0,0,0,714,486.43ZM584.91,411.06l61.68,68H601c-8.86,0-16.06-8.57-16.06-19.12Zm77.47,338h-245c-6.88,0-12.49-5-12.49-11.25V400.31c0-6.21,5.61-11.25,12.49-11.25H539.91v70.87c0,35.36,27.38,64.11,61.06,64.11h73.92V737.76C674.89,744,669.29,749,662.38,749ZM539.91,569a22.5,22.5,0,0,1,0,45H472.42a22.5,22.5,0,0,1,0-45Zm67.49,90a22.5,22.5,0,0,1,0,45h-135a22.5,22.5,0,1,1,0-45Z"/></clipPath><clipPath id="clip-path-2"><rect class="cls-2" x="247.45" y="231.59" width="607.41" height="674.9"/></clipPath><clipPath id="clip-path-3"><rect class="cls-3" x="359.93" y="344.07" width="382.44" height="449.93"/></clipPath><linearGradient id="Dégradé_sans_nom_95-7" x1="224.96" y1="254.08" x2="854.87" y2="883.99" xlink:href="#Dégradé_sans_nom_95"/></defs><path class="cls-4" d="M714,486.43l-122.47-135a22.52,22.52,0,0,0-16.67-7.38H417.42c-31.7,0-57.48,25.24-57.48,56.24V737.76c0,31,25.78,56.24,57.48,56.24h245c31.7,0,57.51-25.24,57.51-56.24V501.54A22.5,22.5,0,0,0,714,486.43ZM584.91,411.06l61.68,68H601c-8.86,0-16.06-8.57-16.06-19.12Zm77.47,338h-245c-6.88,0-12.49-5-12.49-11.25V400.31c0-6.21,5.61-11.25,12.49-11.25H539.91v70.87c0,35.36,27.38,64.11,61.06,64.11h73.92V737.76C674.89,744,669.29,749,662.38,749ZM539.91,569a22.5,22.5,0,0,1,0,45H472.42a22.5,22.5,0,0,1,0-45Zm67.49,90a22.5,22.5,0,0,1,0,45h-135a22.5,22.5,0,1,1,0-45Z"/><g class="cls-5"><g class="cls-6"><rect class="cls-2" x="247.45" y="231.59" width="607.41" height="674.9"/><g class="cls-7"><rect class="cls-3" x="359.93" y="344.07" width="382.44" height="449.93"/><g class="cls-8"><rect class="cls-9" x="247.46" y="231.59" width="584.91" height="674.9"/></g></g></g></g></svg>