<?xml version="1.0" encoding="utf-8"?>
<!-- Generator: Adobe Illustrator 24.0.1, SVG Export Plug-In . SVG Version: 6.00 Build 0)  -->
<svg version="1.1" id="Calque_1" xmlns="http://www.w3.org/2000/svg" xmlns:xlink="http://www.w3.org/1999/xlink" x="0px" y="0px"
	 viewBox="0 0 360 450" style="enable-background:new 0 0 360 450;" xml:space="preserve">
<style type="text/css">
	.st0{fill-rule:evenodd;clip-rule:evenodd;fill:url(#SVGID_1_);}
</style>
<linearGradient id="SVGID_1_" gradientUnits="userSpaceOnUse" x1="-31.4187" y1="325.0283" x2="340.2012" y2="-46.5916" gradientTransform="matrix(1 0 0 -1 0 389.7898)">
	<stop  offset="0" style="stop-color:#36A3DE"/>
	<stop  offset="1" style="stop-color:#5EECB4"/>
</linearGradient>
<path class="st0" d="M354.1,142.4L231.6,7.4C227.3,2.7,221.3,0,214.9,0H57.5C25.8,0,0,25.2,0,56.2v337.5c0,31,25.8,56.2,57.5,56.2
	h245c31.7,0,57.5-25.2,57.5-56.2V157.5C360,151.9,357.8,146.5,354.1,142.4z M225,67l61.7,68h-45.6c-8.9,0-16.1-8.6-16.1-19.1L225,67
	z M302.4,405h-245c-6.9,0-12.5-5-12.5-11.2V56.3C45,50.1,50.6,45,57.4,45H180v70.9c0,35.4,27.4,64.1,61.1,64.1h73.9v213.7
	C315,400,309.3,405,302.4,405L302.4,405z M180,225c12.4,0,22.5,10.1,22.5,22.5S192.4,270,180,270h-67.5c-12.4,0-22.5-10.1-22.5-22.5
	s10.1-22.5,22.5-22.5H180z M247.5,315c12.4,0,22.5,10.1,22.5,22.5S259.9,360,247.5,360h-135C100,360,90,349.9,90,337.5
	S100,315,112.5,315H247.5z"/>
</svg>
