<?xml version="1.0" encoding="utf-8"?>
<!-- Generator: Adobe Illustrator 24.0.1, SVG Export Plug-In . SVG Version: 6.00 Build 0)  -->
<svg version="1.1" id="Calque_1" xmlns="http://www.w3.org/2000/svg" xmlns:xlink="http://www.w3.org/1999/xlink" x="0px" y="0px"
	 viewBox="0 0 406.4 451.3" style="enable-background:new 0 0 406.4 451.3;" xml:space="preserve">
<style type="text/css">
	.st0{fill-rule:evenodd;clip-rule:evenodd;fill:url(#SVGID_1_);}
</style>
<linearGradient id="SVGID_1_" gradientUnits="userSpaceOnUse" x1="43.6147" y1="242.4612" x2="362.7781" y2="-76.7023" gradientTransform="matrix(1 0 0 -1 0 392.4398)">
	<stop  offset="0" style="stop-color:#36A3DE"/>
	<stop  offset="1" style="stop-color:#5EECB4"/>
</linearGradient>
<path class="st0" d="M393.4,184.5l-174-178c-8.5-8.7-23.8-8.7-32.3,0L13,184.5C4.6,193.3,0,204.9,0,217v189.1
	c0,24.9,19.1,45.2,42.6,45.2h321.1c23.5,0,42.7-20.2,42.7-45.2V217C406.4,204.9,401.7,193.3,393.4,184.5z M248.4,270.7v135.5H158
	V270.7H248.4z M203.2,54.7L361.2,217L361,406.1h-67.5v-158c0-12.5-10.1-22.6-22.6-22.6c0,0,0,0,0,0H135.4
	c-12.5,0-22.6,10.1-22.6,22.5c0,0,0,0,0,0v158H45.1l0.1-190L203.2,54.7z"/>
</svg>
