<svg id="Calque_1" data-name="Calque 1" xmlns="http://www.w3.org/2000/svg" xmlns:xlink="http://www.w3.org/1999/xlink" viewBox="0 0 1080 1080"><defs><style>.cls-1,.cls-4,.cls-5{stroke:#fff;stroke-miterlimit:10;}.cls-1,.cls-2{fill:url(#Dégradé_sans_nom_89);}.cls-1{clip-rule:evenodd;}.cls-2,.cls-5{fill-rule:evenodd;}.cls-3{clip-path:url(#clip-path);}.cls-4{fill:url(#Dégradé_sans_nom_89-3);}.cls-5{fill:none;}</style><linearGradient id="Dégradé_sans_nom_89" x1="387.65" y1="445.11" x2="693.13" y2="750.59" gradientUnits="userSpaceOnUse"><stop offset="0" stop-color="#36a3de"/><stop offset="1" stop-color="#5eecb4"/></linearGradient><clipPath id="clip-path"><path class="cls-1" d="M540.39,518.63a93.75,93.75,0,1,0-93.75-93.74,93.83,93.83,0,0,0,93.75,93.74m0-140.61a46.87,46.87,0,1,1-46.87,46.87A46.92,46.92,0,0,1,540.39,378M704.44,729.56a23.44,23.44,0,1,1-46.87,0,117.18,117.18,0,0,0-234.36,0,23.44,23.44,0,0,1-46.88,0c0-90.46,73.62-164,164.06-164s164.05,73.59,164.05,164"/></clipPath><linearGradient id="Dégradé_sans_nom_89-3" x1="235.71" y1="237.4" x2="845.06" y2="846.75" xlink:href="#Dégradé_sans_nom_89"/></defs><path class="cls-2" d="M540.39,518.63a93.75,93.75,0,1,0-93.75-93.74,93.83,93.83,0,0,0,93.75,93.74m0-140.61a46.87,46.87,0,1,1-46.87,46.87A46.92,46.92,0,0,1,540.39,378M704.44,729.56a23.44,23.44,0,1,1-46.87,0,117.18,117.18,0,0,0-234.36,0,23.44,23.44,0,0,1-46.88,0c0-90.46,73.62-164,164.06-164s164.05,73.59,164.05,164"/><g class="cls-3"><rect class="cls-4" x="259.15" y="213.96" width="562.48" height="656.22"/></g><path class="cls-5" d="M540.39,518.63a93.75,93.75,0,1,0-93.75-93.74,93.83,93.83,0,0,0,93.75,93.74m0-140.61a46.87,46.87,0,1,1-46.87,46.87A46.92,46.92,0,0,1,540.39,378M704.44,729.56a23.44,23.44,0,1,1-46.87,0,117.18,117.18,0,0,0-234.36,0,23.44,23.44,0,0,1-46.88,0c0-90.46,73.62-164,164.06-164s164.05,73.59,164.05,164"/></svg>