<svg id="Calque_1" data-name="Calque 1" xmlns="http://www.w3.org/2000/svg" xmlns:xlink="http://www.w3.org/1999/xlink" viewBox="0 0 1080 1080"><defs><style>.cls-1,.cls-4{fill:url(#Dégradé_sans_nom_150);}.cls-1{clip-rule:evenodd;}.cls-2{fill:url(#Dégradé_sans_nom_150-2);}.cls-3{fill:url(#Dégradé_sans_nom_150-3);}.cls-4{fill-rule:evenodd;}.cls-5{clip-path:url(#clip-path);}.cls-6{isolation:isolate;}.cls-7{clip-path:url(#clip-path-2);}.cls-8{clip-path:url(#clip-path-3);}</style><linearGradient id="Dégradé_sans_nom_150" x1="345.59" y1="335.3" x2="755.98" y2="745.7" gradientUnits="userSpaceOnUse"><stop offset="0" stop-color="#36a3de"/><stop offset="1" stop-color="#5eecb4"/></linearGradient><linearGradient id="Dégradé_sans_nom_150-2" x1="209.34" y1="199.06" x2="892.23" y2="881.94" xlink:href="#Dégradé_sans_nom_150"/><linearGradient id="Dégradé_sans_nom_150-3" x1="331.29" y1="321" x2="770.29" y2="760" xlink:href="#Dégradé_sans_nom_150"/><clipPath id="clip-path"><path class="cls-1" d="M477.62,321H380.06a48.82,48.82,0,0,0-48.77,48.78v97.55a48.82,48.82,0,0,0,48.77,48.78h97.56a48.83,48.83,0,0,0,48.78-48.78V369.78A48.83,48.83,0,0,0,477.62,321ZM380.06,467.33V369.78h97.56l0,97.55ZM721.51,321H624a48.83,48.83,0,0,0-48.78,48.78v97.55A48.83,48.83,0,0,0,624,516.11h97.56a48.83,48.83,0,0,0,48.78-48.78V369.78A48.83,48.83,0,0,0,721.51,321ZM624,467.33V369.78h97.56l0,97.55ZM477.62,564.89H380.06a48.82,48.82,0,0,0-48.77,48.78v97.55A48.82,48.82,0,0,0,380.06,760h97.56a48.83,48.83,0,0,0,48.78-48.78V613.67A48.83,48.83,0,0,0,477.62,564.89ZM380.06,711.22V613.67h97.56l0,97.55ZM721.51,564.89H624a48.83,48.83,0,0,0-48.78,48.78v97.55A48.83,48.83,0,0,0,624,760h97.56a48.83,48.83,0,0,0,48.78-48.78V613.67A48.83,48.83,0,0,0,721.51,564.89ZM624,711.22V613.67h97.56l0,97.55Z"/></clipPath><clipPath id="clip-path-2"><rect class="cls-2" x="209.34" y="199.06" width="682.89" height="682.89"/></clipPath><clipPath id="clip-path-3"><rect class="cls-3" x="331.29" y="321" width="439" height="439"/></clipPath></defs><path class="cls-4" d="M477.62,321H380.06a48.82,48.82,0,0,0-48.77,48.78v97.55a48.82,48.82,0,0,0,48.77,48.78h97.56a48.83,48.83,0,0,0,48.78-48.78V369.78A48.83,48.83,0,0,0,477.62,321ZM380.06,467.33V369.78h97.56l0,97.55ZM721.51,321H624a48.83,48.83,0,0,0-48.78,48.78v97.55A48.83,48.83,0,0,0,624,516.11h97.56a48.83,48.83,0,0,0,48.78-48.78V369.78A48.83,48.83,0,0,0,721.51,321ZM624,467.33V369.78h97.56l0,97.55ZM477.62,564.89H380.06a48.82,48.82,0,0,0-48.77,48.78v97.55A48.82,48.82,0,0,0,380.06,760h97.56a48.83,48.83,0,0,0,48.78-48.78V613.67A48.83,48.83,0,0,0,477.62,564.89ZM380.06,711.22V613.67h97.56l0,97.55ZM721.51,564.89H624a48.83,48.83,0,0,0-48.78,48.78v97.55A48.83,48.83,0,0,0,624,760h97.56a48.83,48.83,0,0,0,48.78-48.78V613.67A48.83,48.83,0,0,0,721.51,564.89ZM624,711.22V613.67h97.56l0,97.55Z"/><g class="cls-5"><g class="cls-6"><rect class="cls-2" x="209.34" y="199.06" width="682.89" height="682.89"/><g class="cls-7"><rect class="cls-3" x="331.29" y="321" width="439" height="439"/><g class="cls-8"><rect class="cls-2" x="209.34" y="199.06" width="682.89" height="682.89"/></g></g></g></g></svg>