<?xml version="1.0" encoding="utf-8"?>
<!-- Generator: Adobe Illustrator 24.0.1, SVG Export Plug-In . SVG Version: 6.00 Build 0)  -->
<svg version="1.1" id="Calque_1" xmlns="http://www.w3.org/2000/svg" xmlns:xlink="http://www.w3.org/1999/xlink" x="0px" y="0px"
	 viewBox="0 0 439 439" style="enable-background:new 0 0 439 439;" xml:space="preserve">
<style type="text/css">
	.st0{fill-rule:evenodd;clip-rule:evenodd;fill:url(#SVGID_1_);}
</style>
<linearGradient id="SVGID_1_" gradientUnits="userSpaceOnUse" x1="14.3126" y1="421.6043" x2="424.7315" y2="11.1753" gradientTransform="matrix(1 0 0 -1 0 435.8898)">
	<stop  offset="0" style="stop-color:#36A3DE"/>
	<stop  offset="1" style="stop-color:#5EECB4"/>
</linearGradient>
<path class="st0" d="M146.3,0H48.8C21.8,0,0,21.9,0,48.8v97.6c0,26.9,21.8,48.8,48.8,48.8h97.6c26.9,0,48.8-21.9,48.8-48.8V48.8
	C195.1,21.9,173.3,0,146.3,0z M48.8,146.3V48.8h97.6v97.6L48.8,146.3z M390.2,0h-97.5c-26.9,0-48.8,21.9-48.8,48.8v97.6
	c0,26.9,21.9,48.8,48.8,48.8h97.6c26.9,0,48.8-21.9,48.8-48.8V48.8C439,21.8,417.2,0,390.2,0z M292.7,146.3V48.8h97.6v97.6
	L292.7,146.3z M146.3,243.9H48.8C21.8,243.9,0,265.7,0,292.7v97.5C0,417.1,21.8,439,48.8,439h97.6c26.9,0,48.8-21.9,48.8-48.8v-97.5
	C195.1,265.7,173.3,243.9,146.3,243.9z M48.8,390.2v-97.5h97.6v97.5H48.8z M390.2,243.9h-97.5c-26.9,0-48.8,21.9-48.8,48.8v97.5
	c0,26.9,21.9,48.8,48.8,48.8h97.6c26.9,0,48.8-21.9,48.8-48.8v-97.5C439,265.7,417.2,243.9,390.2,243.9z M292.7,390.2v-97.5h97.6
	v97.5H292.7z"/>
</svg>
