<?xml version="1.0" encoding="utf-8"?>
<!-- Generator: Adobe Illustrator 24.0.1, SVG Export Plug-In . SVG Version: 6.00 Build 0)  -->
<svg version="1.1" id="Calque_1" xmlns="http://www.w3.org/2000/svg" xmlns:xlink="http://www.w3.org/1999/xlink" x="0px" y="0px"
	 viewBox="0 0 560.2 373.5" style="enable-background:new 0 0 560.2 373.5;" xml:space="preserve">
<style type="text/css">
	.st0{fill-rule:evenodd;clip-rule:evenodd;fill:url(#SVGID_1_);}
</style>
<linearGradient id="SVGID_1_" gradientUnits="userSpaceOnUse" x1="195.7816" y1="232.2558" x2="426.5195" y2="1.5179" gradientTransform="matrix(1 0 0 -1 0 334.7697)">
	<stop  offset="0" style="stop-color:#36A3DE"/>
	<stop  offset="1" style="stop-color:#5EECB4"/>
</linearGradient>
<path class="st0" d="M559.9,30c-0.2-2.2-0.6-4.4-1.3-6.5c-0.3-1.8-0.8-3.6-1.5-5.3c-0.8-1.6-1.9-3.1-3-4.4c-1.2-1.9-2.6-3.7-4.2-5.4
	c-0.3-0.3-0.4-0.6-0.7-0.9c-1.1-1-2.5-1.3-3.7-2.1c-1.8-1.3-3.8-2.4-5.8-3.3c-2-0.6-4.2-1-6.3-1.3C532,0.7,530.6,0,529.1,0H373.5
	c-17.2,0-31.1,13.9-31.1,31.1c0,17.2,13.9,31.1,31.1,31.1c0,0,0,0,0,0h87.9L335.8,208.7l-133.1-79.8c-13.1-8-30.1-5.1-39.9,6.8
	L7.2,322.4c-11,13.2-9.2,32.8,4,43.8s32.8,9.2,43.8-4L193.6,196l132.7,79.7c13,7.8,29.8,5.1,39.7-6.4l132-154v71.5
	c0,17.2,14,31.1,31.1,31.1c17.2,0,31.1-13.9,31.1-31.1V31.1C560.2,30.7,560,30.4,559.9,30"/>
</svg>
