<!-- Generated by IcoMoon.io -->
<svg version="1.1" xmlns="http://www.w3.org/2000/svg" width="768" height="768" viewBox="0 0 768 768">
<title></title>
<g id="icomoon-ignore">
</g>
<path d="M114 594l57-58.5 45 45-57 58.5zM352.5 718.5v-94.5h63v94.5h-63zM384 175.5c106.5 0 192 85.5 192 192s-85.5 192-192 192-192-85.5-192-192 85.5-192 192-192zM640.5 336h96v64.5h-96v-64.5zM552 580.5l45-43.5 57 57-45 45zM654 142.5l-57 57-45-45 57-57zM415.5 18v94.5h-63v-94.5h63zM127.5 336v64.5h-96v-64.5h96zM216 154.5l-45 45-57-57 45-45z"></path>
</svg>
