<svg xmlns="http://www.w3.org/2000/svg" width="318.9892" height="349.354" viewBox="0 0 318.9892 349.354"><path d="M23.8736,213.8722c-2.8693,3.1535-4.9444,5.514-8.187,6.361a12.529,12.529,0,0,1-13.3554-4.4825c-3.0919-4.2915-3.1472-9.64.0674-14.4754,6.1694-9.279,12.3321-18.566,18.7147-27.6979a14.8547,14.8547,0,0,0,2.8279-9.2079q-.2349-21.9888-.0139-43.9815a11.89,11.89,0,0,1,11.7019-12.0752q.1521-.0024.3042-.0009c6.6627-.0616,11.7945,4.9,12.2107,11.8936.1284,2.1587.0586,4.3295.07,6.4948a10.5072,10.5072,0,0,0,.9338,5.0689l72.35-107.5263c-6.8627,0-12.8974.2394-18.9042-.0669-6.0883-.31-10.4144-4.9181-10.96-10.973A11.8548,11.8548,0,0,1,100.0923.5909,19.9431,19.9431,0,0,1,105.5205.036q18.4926-.0667,36.9851-.01c9.5719.04,13.9877,4.4962,14.0124,14.1539q.0647,25.24-.001,50.48c-.0225,8.6344-4.71,13.7528-12.3494,13.6757-7.419-.075-11.9472-5.1689-11.99-13.5126-.0189-3.6619-.0032-7.3239-.0032-11.0043-1.8-.42-1.8666,1.1664-2.39,1.9432q-39.588,58.7562-79.1433,117.5341a13.9833,13.9833,0,0,0-2.4736,8.3253q.1061,68.9727-.0631,137.9451c-.0175,4.4317,1.0623,5.496,5.4719,5.4632,29.1537-.217,58.31-.1243,87.4652-.0889a26.6432,26.6432,0,0,1,6.9216.5847,12.117,12.117,0,0,1-2.4639,23.6393c-1.6538.15-3.3288.0892-4.994.0894q-49.98.0064-99.96.0029c-13.3274,0-16.6728-3.4-16.6726-16.9277q.0009-56.2278.0009-112.4558Z" fill="#07191e"/><path d="M264.8269,228.675q.001,53.6905-.0137,107.381c-.0085,8.8708-6.8165,14.7095-14.9034,12.9493a11.8525,11.8525,0,0,1-9.2014-9.99,35.82,35.82,0,0,1-.27-5.4711q-.0176-104.634-.0081-209.2681c0-1.1654-.0461-2.3337.0192-3.4956.4189-7.4547,5.3812-12.5038,12.2256-12.4705,7.1011.0346,12.1242,5.29,12.1329,12.984Q264.869,174.9844,264.8269,228.675Z" fill="#0374ba"/><path d="M186.147,161.1755q-.0006-45.6864-.0183-91.373a23.334,23.334,0,0,1,.8682-7.392,12.14,12.14,0,0,1,23.0314.1,23.7194,23.7194,0,0,1,.8362,7.3968q-.028,91.1232-.0166,182.2468a35.091,35.091,0,0,1-.1007,4.4871c-.8822,6.81-5.9522,11.4942-12.2962,11.4638-6.3753-.0305-11.3341-4.6956-12.1754-11.57a41.29,41.29,0,0,1-.1236-4.9855Q186.1427,206.3628,186.147,161.1755Z" fill="#05c29b"/><path d="M132.1528,201.12q-.0009-39.71.0139-79.4188c.0166-10.1757,8.9781-16.4133,17.5278-12.1977,5.2448,2.586,6.9583,7.2254,6.9434,12.8107-.0454,16.9825-.0156,33.9653-.0154,50.9479q0,53.4453.021,106.8908c.0051,4.8475-.661,9.37-4.9262,12.419-3.9541,2.8263-8.335,3.5371-12.715,1.2569-4.6516-2.4214-6.9026-6.3747-6.8861-11.7916C132.198,255.0654,132.1535,228.0929,132.1528,201.12Z" fill="#febf07"/><path d="M318.9631,262.7414q0,36.9444.0123,73.8886c.0056,5.1536-2.1449,9.0473-6.716,11.3358a11.6949,11.6949,0,0,1-12.7318-1.0952c-3.4888-2.5211-4.7583-6.0882-4.7525-10.4167q.0989-73.8885.0586-147.7771c.0051-7.6088,4.7347-12.5084,11.8252-12.542,7.2987-.0347,12.2678,4.99,12.2846,12.718Q319.0236,225.7971,318.9631,262.7414Z" fill="#fe5640"/><path d="M102.2006,235.6786c0,15.31-.3044,30.6292.1292,45.9272.2154,7.6005-5.2446,13.4153-12.1751,13.4779-7.0932.064-12.1153-5.5435-12.12-13.5187q-.0278-45.931,0-91.8619c.0053-8.5444,4.7156-13.6478,12.4113-13.5742,7.3817.0706,11.7416,5.0987,11.75,13.6188Q102.22,212.7132,102.2006,235.6786Z" fill="#07191e"/></svg>