<svg id="Calque_1" data-name="Calque 1" xmlns="http://www.w3.org/2000/svg" viewBox="0 0 1080 1080"><defs><style>.cls-1{fill:#da4453;}.cls-2{fill:#db342e;}.cls-3{fill:#ff563f;}.cls-4{fill:#98e8e7;}.cls-5{fill:#5ab3b9;}.cls-6{fill:#2b6b75;}.cls-7{fill:#36daa8;}</style></defs><path class="cls-1" d="M579.06,239.08a10.4,10.4,0,0,1-7.36-17.76l20.81-20.81a10.41,10.41,0,0,1,14.72,14.71L586.42,236A10.42,10.42,0,0,1,579.06,239.08Z"/><path class="cls-2" d="M641.49,239.08H579.06a10.41,10.41,0,1,1,0-20.81h62.43a10.41,10.41,0,1,1,0,20.81Z"/><path class="cls-3" d="M599.87,218.27H537.44a10.41,10.41,0,1,1,0-20.81h62.43a10.41,10.41,0,1,1,0,20.81Z"/><path class="cls-4" d="M537.44,291.11A10.39,10.39,0,0,1,527,280.71V197.46a10.41,10.41,0,0,1,20.81,0v83.25A10.39,10.39,0,0,1,537.44,291.11Z"/><path class="cls-5" d="M433.38,603.27H683.11v93.65H641.49V676.11L620.68,655.3l-20.81,20.81v20.81H475V676.11L454.2,655.3l-20.82,20.81v20.81H391.76V603.27Z"/><path class="cls-6" d="M391.76,686.5H683.11v10.42H391.76Z"/><path class="cls-3" d="M703.92,384.76l31.22,62.43H672.71Z"/><path class="cls-3" d="M537.44,249.49l52,93.65H485.41Z"/><path class="cls-3" d="M641.49,499.22H433.38V457.6H641.49Z"/><path class="cls-4" d="M579.06,343.14V457.6H495.82V343.14Z"/><path class="cls-5" d="M641.49,499.22v104H433.38v-104Z"/><path class="cls-3" d="M371,384.76l31.22,62.43H339.74Z"/><path class="cls-4" d="M391.76,603.27v93.65H350.14V447.19h41.62Z"/><path class="cls-4" d="M724.74,447.19V696.92H683.11V447.19Z"/><path class="cls-5" d="M860,603.27v41.62H797.57V603.27Z"/><path class="cls-4" d="M849.6,644.89V842.6H808V644.89Z"/><path class="cls-5" d="M724.74,696.92H808V842.6H641.49V696.92Z"/><path class="cls-4" d="M641.49,696.92V842.6H599.87V676.11l20.81-20.81,20.81,20.81Z"/><path class="cls-3" d="M558.25,801V842.6H516.63V801a20.81,20.81,0,1,1,41.62,0Z"/><path class="cls-5" d="M558.25,696.92h41.62V842.6H558.25V801a20.81,20.81,0,1,0-41.62,0V842.6H475V696.92Z"/><path class="cls-4" d="M475,696.92V842.6H433.38V676.11L454.2,655.3,475,676.11Z"/><path class="cls-5" d="M391.76,696.92h41.62V842.6H266.9V696.92Z"/><path class="cls-5" d="M277.3,603.27v41.62H214.87V603.27Z"/><path class="cls-4" d="M266.9,696.92V842.6H225.28V644.89H266.9Z"/><path class="cls-6" d="M433.38,592.85H641.49v10.42H433.38Z"/><path class="cls-6" d="M495.82,447.17h83.24V457.6H495.82Z"/><path class="cls-7" d="M860,853H214.87a10.41,10.41,0,0,1,0-20.81H860A10.41,10.41,0,0,1,860,853Z"/><path class="cls-4" d="M246.09,624.08a10.39,10.39,0,0,0,10.4-10.4V603.27H235.68v10.41A10.39,10.39,0,0,0,246.09,624.08Z"/><path class="cls-4" d="M828.79,624.08a10.39,10.39,0,0,0,10.4-10.4V603.27H818.38v10.41A10.39,10.39,0,0,0,828.79,624.08Z"/><path class="cls-6" d="M766.36,717.73a10.39,10.39,0,0,0,10.4-10.4V696.92H756v10.41A10.39,10.39,0,0,0,766.36,717.73Z"/><path class="cls-6" d="M724.74,717.73a10.39,10.39,0,0,0,10.4-10.4V696.92H714.33v10.41A10.39,10.39,0,0,0,724.74,717.73Z"/><path class="cls-6" d="M683.11,717.73a10.39,10.39,0,0,0,10.41-10.4V696.92H672.71v10.41A10.39,10.39,0,0,0,683.11,717.73Z"/><path class="cls-6" d="M641.49,624.08a10.39,10.39,0,0,0,10.41-10.4V603.27H631.09v10.41A10.39,10.39,0,0,0,641.49,624.08Z"/><path class="cls-6" d="M599.87,624.08a10.39,10.39,0,0,0,10.41-10.4V603.27H589.47v10.41A10.39,10.39,0,0,0,599.87,624.08Z"/><path class="cls-6" d="M558.25,624.08a10.39,10.39,0,0,0,10.4-10.4V603.27H547.84v10.41A10.39,10.39,0,0,0,558.25,624.08Z"/><path class="cls-6" d="M516.63,624.08a10.39,10.39,0,0,0,10.4-10.4V603.27H506.22v10.41A10.39,10.39,0,0,0,516.63,624.08Z"/><path class="cls-6" d="M475,624.08a10.39,10.39,0,0,0,10.4-10.4V603.27H464.6v10.41A10.39,10.39,0,0,0,475,624.08Z"/><path class="cls-6" d="M433.38,624.08a10.39,10.39,0,0,0,10.41-10.4V603.27H423v10.41A10.39,10.39,0,0,0,433.38,624.08Z"/><path class="cls-6" d="M558.25,717.73a10.39,10.39,0,0,0,10.4-10.4V696.92H547.84v10.41A10.39,10.39,0,0,0,558.25,717.73Z"/><path class="cls-6" d="M516.63,717.73a10.39,10.39,0,0,0,10.4-10.4V696.92H506.22v10.41A10.39,10.39,0,0,0,516.63,717.73Z"/><path class="cls-6" d="M391.76,717.73a10.39,10.39,0,0,0,10.41-10.4V696.92H381.36v10.41A10.39,10.39,0,0,0,391.76,717.73Z"/><path class="cls-6" d="M350.14,717.73a10.39,10.39,0,0,0,10.41-10.4V696.92H339.74v10.41A10.39,10.39,0,0,0,350.14,717.73Z"/><path class="cls-6" d="M308.52,717.73a10.39,10.39,0,0,0,10.41-10.4V696.92H298.11v10.41A10.39,10.39,0,0,0,308.52,717.73Z"/><path class="cls-2" d="M475,478.41A10.39,10.39,0,0,0,485.41,468V457.6H464.6V468A10.4,10.4,0,0,0,475,478.41Z"/><path class="cls-2" d="M516.63,478.41A10.39,10.39,0,0,0,527,468V457.6H506.22V468A10.4,10.4,0,0,0,516.63,478.41Z"/><path class="cls-2" d="M558.25,478.41A10.39,10.39,0,0,0,568.65,468V457.6H547.84V468A10.4,10.4,0,0,0,558.25,478.41Z"/><path class="cls-2" d="M599.87,478.41A10.4,10.4,0,0,0,610.28,468V457.6H589.47V468A10.39,10.39,0,0,0,599.87,478.41Z"/><path class="cls-5" d="M537.44,416A10.4,10.4,0,0,1,527,405.57V384.76a10.41,10.41,0,1,1,20.81,0v20.81A10.39,10.39,0,0,1,537.44,416Z"/><path class="cls-4" d="M475,561.65a10.39,10.39,0,0,1-10.41-10.4V540.84a10.41,10.41,0,1,1,20.81,0v10.41A10.39,10.39,0,0,1,475,561.65Z"/><path class="cls-4" d="M516.63,561.65a10.39,10.39,0,0,1-10.41-10.4V540.84a10.41,10.41,0,1,1,20.81,0v10.41A10.39,10.39,0,0,1,516.63,561.65Z"/><path class="cls-4" d="M558.25,561.65a10.39,10.39,0,0,1-10.41-10.4V540.84a10.41,10.41,0,1,1,20.81,0v10.41A10.39,10.39,0,0,1,558.25,561.65Z"/><path class="cls-4" d="M599.87,561.65a10.39,10.39,0,0,1-10.4-10.4V540.84a10.41,10.41,0,1,1,20.81,0v10.41A10.39,10.39,0,0,1,599.87,561.65Z"/><path class="cls-3" d="M537.37,4.17c-296,0-535.91,239.94-535.91,535.91S241.39,1076,537.37,1076s535.92-239.94,535.92-535.92S833.35,4.17,537.37,4.17Zm0,1020.35c-268.11,0-485.46-217.35-485.46-485.47S269.26,53.59,537.37,53.59s485.47,217.35,485.47,485.46S805.49,1024.52,537.37,1024.52Z"/></svg>