<svg id="Calque_1" data-name="Calque 1" xmlns="http://www.w3.org/2000/svg" xmlns:xlink="http://www.w3.org/1999/xlink" viewBox="0 0 1080 1080"><defs><style>.cls-1,.cls-2,.cls-3{stroke-miterlimit:10;}.cls-1{fill:url(#Dégradé_sans_nom_9);stroke:url(#Dégradé_sans_nom_9-2);}.cls-2{stroke:#fff;fill:url(#Dégradé_sans_nom_9-3);}.cls-3{fill:none;stroke-width:35px;stroke:url(#Dégradé_sans_nom_9-4);}</style><linearGradient id="Dégradé_sans_nom_9" x1="327.04" y1="509.78" x2="839.04" y2="509.78" gradientUnits="userSpaceOnUse"><stop offset="0" stop-color="#5fc5ee"/><stop offset="1" stop-color="#94f9c7"/></linearGradient><linearGradient id="Dégradé_sans_nom_9-2" x1="414.85" y1="341.59" x2="816.3" y2="743.04" xlink:href="#Dégradé_sans_nom_9"/><linearGradient id="Dégradé_sans_nom_9-3" x1="503.8" y1="667.29" x2="640.39" y2="667.29" xlink:href="#Dégradé_sans_nom_9"/><linearGradient id="Dégradé_sans_nom_9-4" x1="467.53" y1="550.53" x2="699.47" y2="782.47" xlink:href="#Dégradé_sans_nom_9"/></defs><path class="cls-1" d="M839,312.37c0-.2,0-.4-.05-.6,0-.53-.1-1.06-.17-1.59,0-.19,0-.37-.07-.56-.09-.62-.2-1.25-.33-1.86l0-.16C836,296.44,828,287,816.15,279.22a113.8,113.8,0,0,0-22.2-11.1c-20.46-7.74-46.36-12.55-74.19-13.91l-1.47-.07c-1.19-.06-2.39-.1-3.58-.15-1.45-.05-2.89-.09-4.34-.12l-1,0c-2,0-4,0-5.94,0s-4,0-5.93,0l-1,0c-1.44,0-2.89.07-4.33.12-1.2,0-2.39.09-3.58.15l-1.47.07c-27.83,1.36-53.74,6.17-74.2,13.91a114.29,114.29,0,0,0-22.22,11.11c-11.82,7.74-19.81,17.22-22.15,28.37l0,.16c-.13.61-.23,1.24-.33,1.86,0,.19-.05.37-.07.56-.07.53-.12,1.06-.17,1.59,0,.2,0,.4-.05.6,0,.72-.07,1.44-.07,2.17V405c-26.17-13.87-65.82-21-105.19-21C395.26,384,327,404.83,327,444.7V705c0,39.88,68.22,60.74,135.61,60.74,5.72,0,11.45-.16,17.14-.45a141,141,0,0,1-21.2-30C429.76,735,403,730.61,382.89,723c-18.53-7-25.43-14.74-25.43-18V679.69c22.42,11.89,54.75,18.82,88.32,20.56A140.9,140.9,0,0,1,442.5,670v-.4c-22.6-1.49-43.29-5.51-59.61-11.68-18.53-7-25.43-14.74-25.43-18V614.61c22.66,12,55.44,19,89.38,20.61a139.48,139.48,0,0,1,11.5-30.07c-28.73-.39-55.38-4.72-75.45-12.31-18.53-7-25.43-14.74-25.43-18V549.52c26.17,13.88,65.82,21,105.19,21,7.31,0,14.64-.24,21.89-.73a140.46,140.46,0,0,1,196.92,0c7.28.5,14.63.74,22,.74,39.37,0,79-7.12,105.19-21v25.35h0c0,3.23-6.91,11-25.44,18-20.08,7.59-46.77,11.93-75.53,12.31a139.48,139.48,0,0,1,11.5,30.07c34-1.64,66.79-8.59,89.47-20.61V640h0c0,3.23-6.91,11-25.44,18-16.34,6.18-37.05,10.19-59.69,11.69V670a140.83,140.83,0,0,1-3.28,30.25c33.6-1.73,66-8.66,88.41-20.56V705h0c0,3.23-6.91,11-25.44,18-20.14,7.62-46.92,12-75.78,12.32a140.72,140.72,0,0,1-21.2,30c5.67.29,11.42.45,17.23.45,33.95,0,66.09-5.08,90.51-14.32C810.79,745.08,839,730.59,839,705V314.54C839,313.81,839,313.09,839,312.37ZM567.84,509.78h0c0,3.23-6.9,11-25.43,18-21.06,8-49.39,12.35-79.75,12.35s-58.69-4.39-79.76-12.35c-18.53-7-25.43-14.75-25.43-18V484.44c26.17,13.88,65.82,21,105.19,21s79-7.12,105.19-21ZM542.4,462.67C521.34,470.64,493,475,462.65,475s-58.69-4.39-79.76-12.36c-18.53-7-25.43-14.74-25.43-18s6.9-11,25.43-18c21.07-8,49.39-12.35,79.76-12.35s58.69,4.38,79.75,12.35c18.53,7,25.44,14.74,25.44,18S560.93,455.66,542.4,462.67Zm55.87-148.45c.42-3.4,7.47-10.87,25.42-17.65,21.06-8,49.38-12.36,79.75-12.36s58.69,4.39,79.75,12.36c17.95,6.78,25,14.25,25.42,17.65,0,.11,0,.21,0,.31,0,3.23-6.91,11-25.44,18-21.06,8-49.38,12.35-79.75,12.35s-58.69-4.39-79.75-12.35c-18.53-7-25.44-14.75-25.44-18C598.25,314.43,598.26,314.33,598.27,314.22ZM808.63,509.78h0c0,3.23-6.91,11-25.44,18-21.06,8-49.38,12.35-79.75,12.35s-58.69-4.39-79.75-12.35c-18.53-7-25.44-14.75-25.44-18V484.44c26.17,13.88,65.82,21,105.19,21s79-7.12,105.19-21Zm0-65.08h0c0,3.23-6.91,11-25.44,18-21.06,8-49.38,12.36-79.75,12.36s-58.69-4.39-79.75-12.36c-18.53-7-25.44-14.74-25.44-18V419.36c26.17,13.87,65.82,21,105.19,21s79-7.13,105.19-21Zm0-65.08h0c0,3.23-6.91,11-25.44,18-21.06,8-49.38,12.35-79.75,12.35s-58.69-4.38-79.75-12.35c-18.53-7-25.44-14.74-25.44-18V354.27c26.17,13.88,65.82,21,105.19,21s79-7.13,105.19-21Z"/><path class="cls-2" d="M511.26,674.43h5.63a69.7,69.7,0,0,1-.22-7.35l.22-6.27h-5.63a6.69,6.69,0,0,1-6.49-4,8.55,8.55,0,0,1,0-7.9,6.72,6.72,0,0,1,6.49-3.89h8.44q7.14-24,28.44-38.94t45.31-14.49a92.64,92.64,0,0,1,32.45,5.62q12.33,5,12.33,14.93a14.07,14.07,0,0,1-4.11,10.38,13.56,13.56,0,0,1-10,4.11q-3,0-11.68-3.57a51.84,51.84,0,0,0-19.9-3.57,42.33,42.33,0,0,0-23,6.92A45.88,45.88,0,0,0,552.79,645H609a7.45,7.45,0,0,1,5.41,2.38,7.72,7.72,0,0,1,2.38,5.62,8.15,8.15,0,0,1-7.79,7.79H548.47c-.3,3.75-.44,5.84-.44,6.27a51,51,0,0,0,.44,7.35h49.31a7.31,7.31,0,0,1,5.41,2.49,8.08,8.08,0,0,1,2.38,5.73,7.75,7.75,0,0,1-7.79,7.79H553a43.18,43.18,0,0,0,16.44,17.84,44,44,0,0,0,23.14,6.39,61.2,61.2,0,0,0,17.52-2.17c1.59-.43,3.71-1.11,6.38-2s4.9-1.7,6.71-2.27a14.78,14.78,0,0,1,3.78-.87,12.6,12.6,0,0,1,9.73,4,14.92,14.92,0,0,1,3.68,10.49c0,6.49-5.41,11.47-13.92,14.93A86.94,86.94,0,0,1,593,743q-26.82,0-46.61-14T519.7,690.44h-8.44a6.31,6.31,0,0,1-6.49-3.79,9,9,0,0,1,0-8.11A6.69,6.69,0,0,1,511.26,674.43Z"/><circle class="cls-3" cx="583.5" cy="666.5" r="146.5"/></svg>