<svg id="Calque_1" data-name="Calque 1" xmlns="http://www.w3.org/2000/svg" viewBox="0 0 1080 1080"><defs><style>.cls-1{fill:#5ab3b9;}.cls-2{fill:#ffd33f;}</style></defs><path class="cls-1" d="M546.51,1053.71c146.49,0,277.76-65.1,366.49-167.94a131.81,131.81,0,0,0-27.48-12.41L721.65,820.87c-40-16-58.25-77.88-62.2-101.37,30.45-24.35,50-59,54.75-96.79a28.31,28.31,0,0,1,4.5-18.44,18.43,18.43,0,0,0,12.78-10.75,259.24,259.24,0,0,0,20-78.24,16.29,16.29,0,0,0-.56-4.33,46.05,46.05,0,0,0-18.06-26.07V390c0-57.69-18.33-81.36-37.62-95.07-3.68-27.79-34.63-84-148.6-84-101.11,3.91-182.14,81.82-186.22,179v94.93A46,46,0,0,0,342.32,511a16.78,16.78,0,0,0-.56,4.34,259.15,259.15,0,0,0,20,78.27,15.56,15.56,0,0,0,11.17,10.28c2.08,1,6,6.2,6,18.87,4.73,37.92,24.43,72.63,55,97C430,743.13,411.86,805,373,820.59L207.69,873.37a132,132,0,0,0-27.6,12.47C268.81,988.64,400.06,1053.71,546.51,1053.71Z"/><path class="cls-2" d="M546.37,8.09c-293.8,0-532,238.17-532,532s238.18,532,532,532,532-238.17,532-532S840.17,8.09,546.37,8.09Zm0,1012.85c-266.15,0-481.9-215.75-481.9-481.9S280.22,57.15,546.37,57.15,1028.27,272.9,1028.27,539,812.51,1020.94,546.37,1020.94Z"/></svg>
