<svg id="Calque_1" data-name="Calque 1" xmlns="http://www.w3.org/2000/svg" xmlns:xlink="http://www.w3.org/1999/xlink"
     viewBox="0 0 1080 1080">
    <defs>
        <style>
            .cls-1{fill:#ffbe00;}.cls-2{fill:url(#Dégradé_sans_nom_5);}.cls-3{fill:url(#Dégradé_sans_nom_5-2);}.cls-4{fill:url(#Dégradé_sans_nom_5-3);}.cls-5{fill:url(#Dégradé_sans_nom_5-4);}.cls-6{fill:url(#Dégradé_sans_nom_5-5);}.cls-7{fill:url(#Dégradé_sans_nom_5-6);}.cls-8{fill:url(#Dégradé_sans_nom_5-7);}.cls-9{fill:url(#Dégradé_sans_nom_5-8);}
        </style>
        <linearGradient id="Dégradé_sans_nom_5" x1="566.33" y1="816.4" x2="632.13" y2="816.4"
                        gradientUnits="userSpaceOnUse">
            <stop offset="0.07" stop-color="#5ab3b9"/>
            <stop offset="1" stop-color="#5ab3b9"/>
        </linearGradient>
        <linearGradient id="Dégradé_sans_nom_5-2" x1="776.01" y1="446.1" x2="830.97" y2="446.1"
                        xlink:href="#Dégradé_sans_nom_5"/>
        <linearGradient id="Dégradé_sans_nom_5-3" x1="655.82" y1="780.71" x2="719.47" y2="780.71"
                        xlink:href="#Dégradé_sans_nom_5"/>
        <linearGradient id="Dégradé_sans_nom_5-4" x1="795.92" y1="539.91" x2="845.21" y2="539.91"
                        xlink:href="#Dégradé_sans_nom_5"/>
        <linearGradient id="Dégradé_sans_nom_5-5" x1="729.16" y1="717.5" x2="788.93" y2="717.5"
                        xlink:href="#Dégradé_sans_nom_5"/>
        <linearGradient id="Dégradé_sans_nom_5-6" x1="777.7" y1="633.97" x2="832.4" y2="633.97"
                        xlink:href="#Dégradé_sans_nom_5"/>
        <linearGradient id="Dégradé_sans_nom_5-7" x1="234.79" y1="540" x2="766.37" y2="540"
                        xlink:href="#Dégradé_sans_nom_5"/>
        <linearGradient id="Dégradé_sans_nom_5-8" x1="505.08" y1="500.66" x2="714.96" y2="500.66"
                        xlink:href="#Dégradé_sans_nom_5"/>
    </defs>
    <path class="cls-1"
          d="M539.81,17.77c-293.81,0-532,238.18-532,532s238.17,532,532,532,532-238.18,532-532S833.61,17.77,539.81,17.77Zm0,1012.86c-266.15,0-481.9-215.76-481.9-481.9s215.75-481.9,481.9-481.9,481.89,215.75,481.89,481.9S806,1030.63,539.81,1030.63Z"/>
    <g id="Layer_2" data-name="Layer 2">
        <path class="cls-2"
              d="M601.66,790.78c-5,1.25-10.16,2.37-15.26,3.3a24.54,24.54,0,1,0,8.94,48.26c6.07-1.12,12.18-2.45,18.18-3.94a24.54,24.54,0,1,0-11.86-47.62Z"/>
        <path class="cls-3"
              d="M783.13,461.86a24.54,24.54,0,0,0,46.59-15.43c-1.94-5.87-4.09-11.75-6.38-17.47a24.54,24.54,0,1,0-45.57,18.22C779.7,452,781.5,456.93,783.13,461.86Z"/>
        <path class="cls-4"
              d="M681.4,755.74c-4.33,2.86-8.8,5.62-13.3,8.22a24.54,24.54,0,1,0,24.53,42.51c5.35-3.09,10.67-6.37,15.82-9.78a24.54,24.54,0,1,0-27.05-41Z"/>
        <path class="cls-5"
              d="M845,530.39a24.54,24.54,0,0,0-49,1.93c.2,5.18.26,10.43.14,15.6A24.54,24.54,0,1,0,845.14,549C845.28,542.83,845.22,536.57,845,530.39Z"/>
        <path class="cls-6"
              d="M779.13,691.18a24.55,24.55,0,0,0-34.37,4.91c-3.11,4.15-6.39,8.25-9.75,12.2a24.54,24.54,0,0,0,2.78,34.59c.58.5,1.18,1,1.79,1.39a24.54,24.54,0,0,0,32.8-4.16c4-4.71,7.92-9.61,11.64-14.57A24.55,24.55,0,0,0,779.13,691.18Z"/>
        <path class="cls-7"
              d="M815.2,602.48a24.54,24.54,0,0,0-30.76,16.07c-1.55,4.94-3.27,9.91-5.12,14.77a24.54,24.54,0,0,0,45.86,17.47c2.2-5.78,4.24-11.68,6.09-17.56A24.53,24.53,0,0,0,815.2,602.48Z"/>
        <path class="cls-8"
              d="M494.6,794.3a253.33,253.33,0,0,1-63-20c-.23-.12-.44-.26-.69-.38-4.7-2.21-9.4-4.58-13.95-7.06l-.07,0a259.76,259.76,0,0,1-24.41-15.26c-115.44-81.31-143.19-241.38-61.87-356.82a254.89,254.89,0,0,1,62.94-62.61l.87-.62c84.07-57.92,198.22-61.83,287.49-2.3l-19.17,27.7c-5.33,7.71-2,13.33,7.28,12.49l83.28-7.46c9.34-.84,14.93-8.92,12.42-17.94L743.4,263.42c-2.5-9-8.91-10.11-14.25-2.4l-19.21,27.76a303.1,303.1,0,0,0-222.07-47.22c-7.86,1.36-15.6,3-23.24,5l-.15,0c-.3.07-.6.17-.89.25A302.59,302.59,0,0,0,295.8,359.25c-.35.42-.71.83-1.05,1.29-1.39,1.87-2.77,3.79-4.12,5.71-2.22,3.14-4.4,6.36-6.48,9.59-.26.39-.46.78-.69,1.17A302.54,302.54,0,0,0,235.1,555.46c0,.21,0,.42,0,.63.28,6.16.77,12.4,1.43,18.54,0,.4.12.77.19,1.17.68,6.18,1.54,12.37,2.62,18.56a302.88,302.88,0,0,0,85.4,164.23l.31.33.12.1a309.27,309.27,0,0,0,39.09,32.67,302.69,302.69,0,0,0,121.68,50.92,24.54,24.54,0,0,0,8.66-48.31Z"/>
        <path class="cls-9"
              d="M524.94,344a19.86,19.86,0,0,0-19.86,19.85V561.62L686,655.14a19.85,19.85,0,0,0,18.23-35.27L544.78,537.44V363.81A19.85,19.85,0,0,0,524.94,344Z"/>
    </g>
</svg>
