<svg id="Calque_1" data-name="Calque 1" xmlns="http://www.w3.org/2000/svg" xmlns:xlink="http://www.w3.org/1999/xlink" viewBox="0 0 1080 1080"><defs><style>.cls-1,.cls-2,.cls-3{fill:#b5b5b5;}.cls-1{clip-rule:evenodd;}.cls-3{fill-rule:evenodd;}.cls-4{clip-path:url(#clip-path);}.cls-5{isolation:isolate;}.cls-6{clip-path:url(#clip-path-2);}.cls-7{clip-path:url(#clip-path-3);}</style><clipPath id="clip-path"><path class="cls-1" d="M734.42,611.26l-41-41.1V468.39c0-79.31-57-146.68-132.6-156.68A153.47,153.47,0,0,0,387.21,463.6l0,106.56-41,41.1a37.27,37.27,0,0,0,26.38,63.61h76.62v7.77c0,46,40.87,83.36,91.13,83.36s91.13-37.39,91.13-83.36v-7.77H708a37.29,37.29,0,0,0,26.38-63.61ZM585.86,682.64c0,20.48-20.87,37.79-45.57,37.79s-45.57-17.31-45.57-37.79v-7.77h91.14ZM392.54,629.3l26.89-26.93a45.26,45.26,0,0,0,13.35-32.21V463.6a107.79,107.79,0,0,1,36.91-81,106.15,106.15,0,0,1,85.13-25.73c53,7,93,55,93,111.53V570.16a45.24,45.24,0,0,0,13.33,32.19l26.91,26.95Z"/></clipPath><clipPath id="clip-path-2"><rect class="cls-2" x="198.55" y="196.43" width="660.7" height="683.49"/></clipPath><clipPath id="clip-path-3"><rect class="cls-2" x="312.47" y="287.56" width="455.66" height="478.44"/></clipPath></defs><path class="cls-3" d="M734.42,611.26l-41-41.1V468.39c0-79.31-57-146.68-132.6-156.68A153.47,153.47,0,0,0,387.21,463.6l0,106.56-41,41.1a37.27,37.27,0,0,0,26.38,63.61h76.62v7.77c0,46,40.87,83.36,91.13,83.36s91.13-37.39,91.13-83.36v-7.77H708a37.29,37.29,0,0,0,26.38-63.61ZM585.86,682.64c0,20.48-20.87,37.79-45.57,37.79s-45.57-17.31-45.57-37.79v-7.77h91.14ZM392.54,629.3l26.89-26.93a45.26,45.26,0,0,0,13.35-32.21V463.6a107.79,107.79,0,0,1,36.91-81,106.15,106.15,0,0,1,85.13-25.73c53,7,93,55,93,111.53V570.16a45.24,45.24,0,0,0,13.33,32.19l26.91,26.95Z"/><g class="cls-4"><g class="cls-5"><rect class="cls-2" x="198.55" y="196.43" width="660.7" height="683.49"/><g class="cls-6"><rect class="cls-2" x="312.47" y="287.56" width="455.66" height="478.44"/><g class="cls-7"><rect class="cls-2" x="221.32" y="196.45" width="637.91" height="683.46"/></g></g></g></g></svg>