<svg id="Calque_1" data-name="Calque 1" xmlns="http://www.w3.org/2000/svg" viewBox="0 0 1080 1080"><defs><style>.cls-1,.cls-2{fill:#b5b5b5;}.cls-1{stroke:#b5b5b5;stroke-miterlimit:10;stroke-width:5px;}</style></defs><path class="cls-1" d="M718.64,311.82H468.74a135,135,0,0,0-112.24-60c-74.47,0-135.06,60.58-135.06,135.05s60.59,135,135.06,135a137.65,137.65,0,0,0,15-.83V749a15,15,0,0,0,15,15H718.64a15,15,0,0,0,15-15V326.83A15,15,0,0,0,718.64,311.82Zm-77,90v90H461.54V471.63a134.42,134.42,0,0,0,29.17-69.77Zm-390.15-15a105,105,0,1,1,105,105A105.16,105.16,0,0,1,251.46,386.85ZM703.63,734H401.52V514.18a134.85,134.85,0,0,0,30-15.09v7.81a15,15,0,0,0,15,15H656.62a15,15,0,0,0,15-15v-120a15,15,0,0,0-15-15H490.71a134.21,134.21,0,0,0-6.88-30h219.8Z"/><path class="cls-1" d="M476.54,551.92h-30a15,15,0,0,0,0,30h30a15,15,0,1,0,0-30Z"/><path class="cls-1" d="M536.57,581.93h30a15,15,0,1,0,0-30h-30a15,15,0,1,0,0,30Z"/><path class="cls-1" d="M656.62,551.92h-30a15,15,0,0,0,0,30h30a15,15,0,0,0,0-30Z"/><path class="cls-1" d="M476.54,611.94h-30a15,15,0,0,0,0,30h30a15,15,0,1,0,0-30Z"/><path class="cls-1" d="M536.57,642h30a15,15,0,1,0,0-30h-30a15,15,0,1,0,0,30Z"/><path class="cls-1" d="M656.62,611.94h-30a15,15,0,0,0,0,30h30a15,15,0,0,0,0-30Z"/><path class="cls-1" d="M476.54,672h-30a15,15,0,0,0,0,30h30a15,15,0,0,0,0-30Z"/><path class="cls-1" d="M656.62,672h-120a15,15,0,0,0,0,30h120a15,15,0,0,0,0-30Z"/><path class="cls-2" d="M302.68,391.22h3.9a49.85,49.85,0,0,1-.15-5.1l.15-4.35h-3.9a4.64,4.64,0,0,1-4.51-2.78,5.88,5.88,0,0,1,0-5.47,4.67,4.67,0,0,1,4.51-2.7h5.85a49.43,49.43,0,0,1,19.73-27Q343,333.44,359.7,333.75a64.2,64.2,0,0,1,22.51,3.9q8.55,3.47,8.55,10.36a9.76,9.76,0,0,1-2.85,7.2,9.4,9.4,0,0,1-6.9,2.85c-1.4,0-4.11-.82-8.11-2.47a35.76,35.76,0,0,0-13.8-2.48,29.36,29.36,0,0,0-16,4.8,31.74,31.74,0,0,0-11.63,12.91h39a5.17,5.17,0,0,1,3.75,1.65,5.33,5.33,0,0,1,1.65,3.9,5.65,5.65,0,0,1-5.4,5.4h-42c-.21,2.6-.3,4.05-.3,4.35a35.22,35.22,0,0,0,.3,5.1H362.7a5.07,5.07,0,0,1,3.75,1.73,5.59,5.59,0,0,1,1.65,4,5.38,5.38,0,0,1-5.4,5.4H331.64A30,30,0,0,0,343,414.71a30.59,30.59,0,0,0,16.06,4.43,42.4,42.4,0,0,0,12.15-1.5c1.1-.31,2.58-.78,4.43-1.43s3.4-1.18,4.65-1.58A10.82,10.82,0,0,1,383,414a8.73,8.73,0,0,1,6.75,2.78,10.34,10.34,0,0,1,2.55,7.28q0,6.75-8.85,10.35a64.53,64.53,0,0,1-24,4.35q-18.61,0-32.34-9.68t-18.53-26.78h-5.85a4.38,4.38,0,0,1-4.51-2.63,6.19,6.19,0,0,1,0-5.62A4.65,4.65,0,0,1,302.68,391.22Z"/></svg>