<svg id="Calque_1" data-name="Calque 1" xmlns="http://www.w3.org/2000/svg" viewBox="0 0 1080 1080"><defs><style>.cls-1{fill:#b5b5b5;stroke:#b5b5b5;stroke-miterlimit:10;stroke-width:15px;}</style></defs><path class="cls-1" d="M478,475.06H318a37.37,37.37,0,0,1-37.33-37.33v-96A37.37,37.37,0,0,1,318,304.4H478a37.37,37.37,0,0,1,37.34,37.33v96A37.37,37.37,0,0,1,478,475.06ZM318,336.4a5.33,5.33,0,0,0-5.33,5.33v96a5.33,5.33,0,0,0,5.33,5.33H478a5.34,5.34,0,0,0,5.34-5.33v-96A5.34,5.34,0,0,0,478,336.4Z"/><path class="cls-1" d="M478,816.4H318a37.38,37.38,0,0,1-37.33-37.34v-224A37.37,37.37,0,0,1,318,517.73H478a37.37,37.37,0,0,1,37.34,37.33v224A37.38,37.38,0,0,1,478,816.4ZM318,549.73a5.33,5.33,0,0,0-5.33,5.33v224A5.34,5.34,0,0,0,318,784.4H478a5.35,5.35,0,0,0,5.34-5.34v-224a5.34,5.34,0,0,0-5.34-5.33Z"/><path class="cls-1" d="M755.32,816.4h-160A37.38,37.38,0,0,1,558,779.06v-96a37.37,37.37,0,0,1,37.34-37.33h160a37.36,37.36,0,0,1,37.33,37.33v96A37.37,37.37,0,0,1,755.32,816.4Zm-160-138.67a5.34,5.34,0,0,0-5.34,5.33v96a5.35,5.35,0,0,0,5.34,5.34h160a5.34,5.34,0,0,0,5.33-5.34v-96a5.33,5.33,0,0,0-5.33-5.33Z"/><path class="cls-1" d="M755.32,603.06h-160A37.37,37.37,0,0,1,558,565.73v-224a37.37,37.37,0,0,1,37.34-37.33h160a37.36,37.36,0,0,1,37.33,37.33v224A37.36,37.36,0,0,1,755.32,603.06Zm-160-266.66a5.34,5.34,0,0,0-5.34,5.33v224a5.34,5.34,0,0,0,5.34,5.33h160a5.33,5.33,0,0,0,5.33-5.33v-224a5.33,5.33,0,0,0-5.33-5.33Z"/></svg>