<svg id="Calque_1" data-name="Calque 1" xmlns="http://www.w3.org/2000/svg" xmlns:xlink="http://www.w3.org/1999/xlink" viewBox="0 0 1080 1080"><defs><style>.cls-1,.cls-2,.cls-4{fill:#b5b5b5;}.cls-1{clip-rule:evenodd;}.cls-2{fill-rule:evenodd;}.cls-3{clip-path:url(#clip-path);}</style><clipPath id="clip-path"><path class="cls-1" d="M755.27,527.25l-174-178c-8.52-8.7-23.78-8.7-32.29,0l-174.07,178a46.81,46.81,0,0,0-13,32.46V748.85c0,24.9,19.12,45.15,42.63,45.15H725.63c23.5,0,42.65-20.25,42.65-45.15V559.74A46.88,46.88,0,0,0,755.27,527.25Zm-145,86.13V748.85H519.93V613.38Zm-45.2-216L723.12,559.74l-.22,189.11H655.39v-158a22.57,22.57,0,0,0-22.58-22.58H497.35a22.56,22.56,0,0,0-22.58,22.58v158H407l.14-190Z"/></clipPath></defs><path class="cls-2" d="M755.27,527.25l-174-178c-8.52-8.7-23.78-8.7-32.29,0l-174.07,178a46.81,46.81,0,0,0-13,32.46V748.85c0,24.9,19.12,45.15,42.63,45.15H725.63c23.5,0,42.65-20.25,42.65-45.15V559.74A46.88,46.88,0,0,0,755.27,527.25Zm-145,86.13V748.85H519.93V613.38Zm-45.2-216L723.12,559.74l-.22,189.11H655.39v-158a22.57,22.57,0,0,0-22.58-22.58H497.35a22.56,22.56,0,0,0-22.58,22.58v158H407l.14-190Z"/><g class="cls-3"><rect class="cls-4" x="249" y="229.85" width="632.16" height="677.03"/></g></svg>